<?xml version="1.0" encoding="UTF-8"?>
<svg width="323px" height="68px" viewBox="0 0 323 68" version="1.1" xmlns="http://www.w3.org/2000/svg" xmlns:xlink="http://www.w3.org/1999/xlink">
    <title>Artboard</title>
    <g id="Artboard" stroke="none" stroke-width="1" fill="none" fill-rule="evenodd">
        <g id="شعار-مكتب-شؤن-المواطنين01-2" transform="translate(2.000000, 0.000000)" fill="#9D815A">
            <polygon id="Fill-1" points="115.931 67.474 116.683 67.474 116.683 0.556 115.931 0.556"></polygon>
            <g id="Group-154" transform="translate(0.000000, 3.667000)">
                <path d="M100.0249,38.0735 C100.0249,38.0735 99.8869,38.2075 98.7199,38.9795 C98.7199,38.9795 97.9369,39.4935 96.8589,40.1515 C96.8589,40.1515 95.8279,40.7415 94.7839,40.9665 C94.7839,40.9665 93.2809,41.1345 92.6379,40.6495 C92.6379,40.6495 91.9269,40.0595 92.2649,39.1205 C92.2649,39.1205 92.5749,38.4005 93.0249,37.6305 C93.0249,37.6305 93.4659,36.9625 93.6719,36.6565 C93.6719,36.6565 93.7609,36.4955 93.3559,36.4065 C93.3559,36.4065 93.1289,36.3365 92.4899,36.4905 C92.4899,36.4905 92.0399,36.5785 91.8129,36.8245 C91.8129,36.8245 91.6749,36.8835 91.6069,36.7605 C91.6069,36.7605 92.0149,35.6925 92.2199,35.5335 C92.2199,35.5335 94.1939,34.6325 94.4229,35.6015 C94.4229,35.6015 94.5669,36.1705 93.9429,36.9935 C93.9429,36.9935 93.5719,37.4835 93.1749,38.1545 C93.1749,38.1545 92.5559,39.1205 93.2409,39.4135 C93.2409,39.4135 94.3869,40.2615 97.3389,39.1315 C97.3389,39.1315 98.8579,38.5175 99.4669,38.0405 C99.4669,38.0405 99.8999,37.7215 99.9979,37.7535 C99.9979,37.7535 100.2099,37.8275 100.0249,38.0735 M37.7059,38.3495 C37.7059,38.2355 38.6099,36.1715 38.6099,36.1715 C38.7009,36.0775 38.8689,36.1715 38.8689,36.1715 C39.1239,36.2815 39.8259,36.6545 39.8259,36.6545 C40.3589,36.9205 41.3029,37.3825 41.3029,37.3825 C41.6529,37.5645 41.5619,37.7115 41.5619,37.7115 C41.4369,38.0255 40.9619,38.9655 40.9619,38.9655 C40.5199,39.9015 40.4609,39.9205 40.4609,39.9205 C40.3249,39.8565 38.9179,39.1655 38.9179,39.1655 C37.4259,38.4945 37.7059,38.3495 37.7059,38.3495 M52.8359,38.3945 C52.8359,38.3945 53.2579,38.1635 53.8009,37.9895 C53.8009,37.9895 53.5359,37.6715 53.2389,37.7165 C53.2389,37.7165 53.0229,37.7475 52.8909,37.9135 C52.8909,37.9135 52.8189,37.9585 52.8059,37.8445 C52.8059,37.8445 52.9549,37.1445 53.3899,37.0624718 C53.3899,37.0624718 53.8249,37.0475 54.4699,37.7095 C54.4699,37.7095 54.8479,38.0595 54.8009,38.1665 C54.8009,38.1665 54.7839,38.3655 54.5439,38.6365 C54.5439,38.6365 53.5849,38.2825 52.6429,39.0715 C52.6429,39.0715 52.4749,39.4795 52.7469,40.3755 C52.7469,40.3755 53.1649,41.5085 53.3009,42.2785 C53.3009,42.2785 53.5129,43.4245 53.4319,44.2565 C53.4319,44.2565 53.4049,44.5095 53.2579,45.0305 C53.2579,45.0305 53.1479,45.1405 53.1249,45.0265 C53.1249,45.0265 53.2329,44.1855 53.0189,43.2285 C53.0189,43.2285 52.5679,41.1785 52.2719,40.3755 C52.2719,40.3755 52.0209,38.9405 52.8359,38.3945 M16.2419,30.3645 C16.1209,30.6785 15.6459,31.6145 15.6459,31.6145 C15.2049,32.5485 15.1449,32.5735 15.1449,32.5735 C15.0069,32.5105 13.5999,31.8115 13.5999,31.8115 C12.1039,31.1435 12.3889,30.9965 12.3889,30.9965 C12.3889,30.8825 13.2929,28.8175 13.2929,28.8175 C13.3839,28.7285 13.5509,28.8175 13.5509,28.8175 C13.8059,28.9345 14.5099,29.3095 14.5099,29.3095 C15.0409,29.5645 15.9809,30.0335 15.9809,30.0335 C16.3369,30.2115 16.2419,30.3645 16.2419,30.3645 M9.7939,11.0415 C9.7939,11.0415 10.2399,9.8575 10.4259,9.6935 C10.4259,9.6935 10.7659,9.1825 12.9239,8.9445 C12.9239,8.9445 15.8359,8.7045 16.3979,9.0315 C16.3979,9.0315 16.6309,9.2755 16.5039,9.6235 C16.5039,9.6235 16.0389,10.6345 15.2119,11.7815 C15.2119,11.7815 14.6469,12.5315 14.2499,12.8705 C14.2499,12.8705 14.1119,13.0385 13.3629,13.2225 C13.3629,13.2225 11.5319,13.6935 10.6319,13.8655 C10.6319,13.8655 10.2929,13.8995 10.3239,13.7655 C10.3239,13.7655 10.1759,13.7195 12.1859,12.7435 C12.1859,12.7435 13.7939,11.8925 14.5299,11.3485 C14.5299,11.3485 14.4309,11.2345 13.8939,11.2915 C13.8939,11.2915 12.5779,11.2445 11.2289,11.5205 C11.2289,11.5205 10.0289,11.7815 9.6919,11.9725 C9.6919,11.9725 9.5249,11.7205 9.7939,11.0415 M49.8169,23.2395 C49.8169,23.1225 50.7299,21.0605 50.7299,21.0605 C50.8169,20.9705 50.9879,21.0605 50.9879,21.0605 C51.2329,21.1705 51.9419,21.5485 51.9419,21.5485 C52.4739,21.8075 53.4159,22.2715 53.4159,22.2715 C53.7689,22.4565 53.6769,22.6055 53.6769,22.6055 C53.5499,22.9165 53.0739,23.8615 53.0739,23.8615 C52.6309,24.7925 52.5739,24.8115 52.5739,24.8115 C52.4399,24.7465 51.0329,24.0585 51.0329,24.0585 C49.5369,23.3855 49.8169,23.2395 49.8169,23.2395 M53.7699,22.4225 C53.7699,22.3055 54.6749,20.2395 54.6749,20.2395 C54.7649,20.1495 54.9349,20.2395 54.9349,20.2395 C55.1829,20.3535 55.8909,20.7315 55.8909,20.7315 C56.4199,20.9905 57.3639,21.4525 57.3639,21.4525 C57.7139,21.6355 57.6229,21.7875 57.6229,21.7875 C57.4959,22.1035 57.0249,23.0445 57.0249,23.0445 C56.5769,23.9775 56.5219,23.9965 56.5219,23.9965 C56.3859,23.9285 54.9809,23.2395 54.9809,23.2395 C53.4849,22.5685 53.7699,22.4225 53.7699,22.4225" id="Fill-2"></path>
                <path d="M14.5103,29.3099 C14.5103,29.3099 13.8063,28.9349 13.5513,28.8179 C13.5513,28.8179 13.3843,28.7279 13.2923,28.8179 C13.2923,28.8179 12.3883,30.8819 12.3883,30.9969 C12.3883,30.9969 12.1043,31.1429 13.6003,31.8119 C13.6003,31.8119 15.0073,32.5099 15.1453,32.5739 C15.1453,32.5739 15.2043,32.5479 15.6453,31.6149 C15.6453,31.6149 16.1213,30.6789 16.2423,30.3649 C16.2423,30.3649 16.3373,30.2119 15.9813,30.0339 C15.9813,30.0339 15.0413,29.5639 14.5103,29.3099" id="Fill-4"></path>
                <path d="M11.2285,11.5208 C12.5785,11.2448 13.8935,11.2918 13.8935,11.2918 C14.4305,11.2348 14.5305,11.3488 14.5305,11.3488 C13.7935,11.8928 12.1855,12.7438 12.1855,12.7438 C10.1755,13.7198 10.3245,13.7658 10.3245,13.7658 C10.2925,13.8998 10.6315,13.8658 10.6315,13.8658 C11.5315,13.6938 13.3635,13.2228 13.3635,13.2228 C14.1125,13.0388 14.2495,12.8708 14.2495,12.8708 C14.6465,12.5308 15.2115,11.7818 15.2115,11.7818 C16.0395,10.6338 16.5035,9.6238 16.5035,9.6238 C16.6305,9.2758 16.3975,9.0318 16.3975,9.0318 C15.8355,8.7048 12.9235,8.9448 12.9235,8.9448 C10.7655,9.1828 10.4265,9.6938 10.4265,9.6938 C10.2395,9.8568 9.7935,11.0418 9.7935,11.0418 C9.5245,11.7208 9.6915,11.9728 9.6915,11.9728 C10.0295,11.7818 11.2285,11.5208 11.2285,11.5208" id="Fill-6"></path>
                <path d="M40.4604,39.9202 C40.4604,39.9202 40.5204,39.9012 40.9614,38.9652 C40.9614,38.9652 41.4364,38.0252 41.5624,37.7112 C41.5624,37.7112 41.6524,37.5652 41.3024,37.3822 C41.3024,37.3822 40.3584,36.9202 39.8264,36.6542 C39.8264,36.6542 39.1234,36.2812 38.8694,36.1712 C38.8694,36.1712 38.7014,36.0772 38.6094,36.1712 C38.6094,36.1712 37.7064,38.2352 37.7064,38.3502 C37.7064,38.3502 37.4254,38.4942 38.9184,39.1652 C38.9184,39.1652 40.3244,39.8572 40.4604,39.9202" id="Fill-8"></path>
                <path d="M54.981,23.2395 C54.981,23.2395 56.386,23.9285 56.522,23.9965 C56.522,23.9965 56.577,23.9775 57.024,23.0445 C57.024,23.0445 57.496,22.1035 57.623,21.7875 C57.623,21.7875 57.714,21.6355 57.364,21.4525 C57.364,21.4525 56.42,20.9895 55.891,20.7315 C55.891,20.7315 55.183,20.3535 54.935,20.2395 C54.935,20.2395 54.765,20.1495 54.675,20.2395 C54.675,20.2395 53.77,22.3055 53.77,22.4225 C53.77,22.4225 53.485,22.5685 54.981,23.2395" id="Fill-10"></path>
                <path d="M51.0327,24.0589 C51.0327,24.0589 52.4397,24.7459 52.5737,24.8119 C52.5737,24.8119 52.6307,24.7929 53.0747,23.8609 C53.0747,23.8609 53.5497,22.9169 53.6777,22.6049 C53.6777,22.6049 53.7687,22.4559 53.4157,22.2719 C53.4157,22.2719 52.4737,21.8079 51.9417,21.5479 C51.9417,21.5479 51.2327,21.1709 50.9887,21.0599 C50.9887,21.0599 50.8167,20.9709 50.7297,21.0599 C50.7297,21.0599 49.8167,23.1229 49.8167,23.2399 C49.8167,23.2399 49.5367,23.3859 51.0327,24.0589" id="Fill-12"></path>
                <path d="M99.9976,37.7532 C99.8996,37.7222 99.4676,38.0402 99.4676,38.0402 C98.8576,38.5182 97.3386,39.1312 97.3386,39.1312 C94.3866,40.2622 93.2416,39.4132 93.2416,39.4132 C92.5556,39.1202 93.1756,38.1542 93.1756,38.1542 C93.5726,37.4832 93.9436,36.9932 93.9436,36.9932 C94.5676,36.1702 94.4226,35.6022 94.4226,35.6022 C94.1936,34.6322 92.2206,35.5332 92.2206,35.5332 C92.0146,35.6922 91.6066,36.7602 91.6066,36.7602 C91.6746,36.8832 91.8126,36.8242 91.8126,36.8242 C92.0396,36.5782 92.4896,36.4902 92.4896,36.4902 C93.1286,36.3362 93.3556,36.4062 93.3556,36.4062 C93.7606,36.4952 93.6716,36.6562 93.6716,36.6562 C93.4656,36.9622 93.0246,37.6302 93.0246,37.6302 C92.5746,38.4002 92.2656,39.1202 92.2656,39.1202 C91.9276,40.0602 92.6386,40.6492 92.6386,40.6492 C93.2816,41.1342 94.7836,40.9662 94.7836,40.9662 C95.8276,40.7412 96.8586,40.1512 96.8586,40.1512 C97.9366,39.4932 98.7206,38.9802 98.7206,38.9802 C99.8876,38.2072 100.0246,38.0732 100.0246,38.0732 C100.2096,37.8272 99.9976,37.7532 99.9976,37.7532" id="Fill-14"></path>
                <path d="M53.0186,43.2288 C53.2326,44.1858 53.1246,45.0268 53.1246,45.0268 C53.1476,45.1408 53.2586,45.0308 53.2586,45.0308 C53.4046,44.5088 53.4326,44.2558 53.4326,44.2558 C53.5126,43.4238 53.3006,42.2788 53.3006,42.2788 C53.1646,41.5078 52.7466,40.3748 52.7466,40.3748 C52.4756,39.4798 52.6426,39.0718 52.6426,39.0718 C53.5846,38.2828 54.5436,38.6368 54.5436,38.6368 C54.7846,38.3658 54.8006,38.1668 54.8006,38.1668 C54.8476,38.0598 54.4696,37.7088 54.4696,37.7088 C53.8246,37.0468 53.3896,37.062766 53.3896,37.062766 C52.9546,37.1448 52.8066,37.8448 52.8066,37.8448 C52.8186,37.9578 52.8916,37.9138 52.8916,37.9138 C53.0226,37.7478 53.2396,37.7158 53.2396,37.7158 C53.5366,37.6708 53.8016,37.9898 53.8016,37.9898 C53.2586,38.1638 52.8356,38.3948 52.8356,38.3948 C52.0206,38.9408 52.2716,40.3748 52.2716,40.3748 C52.5686,41.1788 53.0186,43.2288 53.0186,43.2288" id="Fill-16"></path>
                <path d="M90.7935,8.512 C91.0165,8.126 91.6295,8.015 91.6295,8.015 C92.2895,7.807 92.5145,8.215 92.5145,8.215 C92.7885,8.512 92.6985,9.151 92.6985,9.151 C92.7395,9.779 92.4015,10.443 92.4015,10.443 C92.0395,10.24 91.1535,9.42 91.1535,9.42 C90.4985,8.671 90.7935,8.512 90.7935,8.512 M91.5635,11.464 C91.4275,11.793 90.1335,12.983 90.1335,12.983 C89.0025,14.104 86.9125,15.81 86.9125,15.81 C84.8705,17.382 83.6895,18.201 83.6895,18.201 C81.0005,20.012 81.2725,20.052 81.2725,20.052 C81.3565,20.175 81.6815,20.012 81.6815,20.012 C82.4215,19.634 83.2325,19.097 83.2325,19.097 C84.7925,18.144 85.6225,17.598 85.6225,17.598 C87.1185,16.614 87.7735,16.069 87.7735,16.069 C89.1825,14.887 89.6005,14.445 89.6005,14.445 C90.6445,13.492 91.2245,12.741 91.2245,12.741 C92.1065,11.506 92.0395,11.799 92.0395,11.799 C92.1765,11.829 92.5145,12.351 92.5145,12.351 C92.8115,12.667 93.0155,13.164 93.0155,13.164 C93.1045,13.144 93.3975,12.098 93.3975,12.098 C93.4245,11.812 93.2065,11.426 93.2065,11.426 C93.0835,11.145 92.6655,10.683 92.6655,10.683 C92.6265,10.596 92.9005,10.193 92.9005,10.193 C93.2185,9.656 93.3885,8.964 93.3885,8.964 C93.5605,7.982 93.3205,7.311 93.3205,7.311 C93.0835,6.462 91.9165,6.844 91.9165,6.844 C90.6255,7.536 90.0975,9.151 90.0975,9.151 C89.9765,9.7 90.2115,10.089 90.2115,10.089 C90.5535,10.783 91.5635,11.464 91.5635,11.464" id="Fill-18"></path>
                <path d="M53.7202,0.3621 L53.7292,0.3171 C53.0732,0.5121 52.0422,0.8821 52.0422,0.8821 C50.6772,1.4271 45.7862,3.3971 45.7862,3.3971 C43.0362,4.4921 32.6652,9.9981 32.6652,9.9981 C32.4852,10.3421 32.4412,11.1321 32.4412,11.1321 C32.4482,11.1261 32.4582,11.1191 32.4672,11.1131 C32.4482,11.2811 32.4412,11.4021 32.4412,11.4021 C33.3492,10.7461 38.1152,8.2701 38.1152,8.2701 C41.3592,6.5261 47.8702,3.7791 47.8702,3.7791 C51.3392,2.3961 53.4492,1.6211 53.4492,1.6211 C53.4492,1.6211 53.7192,0.3681 53.7202,0.3621" id="Fill-20"></path>
                <path d="M18.457,39.2894 C16.961,40.3694 14.758,41.5564 14.758,41.5564 C12.469,42.7304 10.453,43.2024 10.453,43.2024 C7.696,43.7564 5.997,43.3124 5.997,43.3124 C3.458,42.8084 1.958,40.8554 1.958,40.8554 C0.732,39.2644 0.38,37.8384 0.38,37.8384 C-0.121,36.1194 0.188,34.2684 0.188,34.2684 C0.333,32.8814 0.823,31.4824 0.823,31.4824 C1.311,29.9654 1.978,28.6514 1.978,28.6514 C2.624,27.3404 3.157,26.6034 3.157,26.6034 C3.58,26.0754 3.474,26.0754 3.474,26.0754 C3.274,25.6654 3.376,24.5564 3.376,24.5564 C3.436,23.7894 3.87,22.4994 3.87,22.4994 C4.125,21.7314 5.076,19.8324 5.076,19.8324 C5.7,18.5654 6.228,17.5174 6.228,17.5174 C6.678,16.6774 6.903,17.0354 6.903,17.0354 C7.015,17.0954 6.835,17.5044 6.835,17.5044 C6.618,18.1204 6.304,18.8484 6.304,18.8484 C6.007,19.6224 5.131,21.2734 5.131,21.2734 C4.35,22.8654 4.518,23.6544 4.518,23.6544 C4.685,25.6104 5.963,25.5394 5.963,25.5394 C6.54,25.3964 6.767,24.6794 6.767,24.6794 C7.073,23.7474 7.323,23.5204 7.323,23.5204 C7.524,23.3844 7.592,23.8054 7.592,23.8054 C7.626,24.1084 7.495,24.5304 7.495,24.5304 C7.266,25.4944 6.848,26.3554 6.848,26.3554 C6.052,28.1364 5.203,28.1194 5.203,28.1194 C4.575,28.2404 3.894,27.2424 3.894,27.2424 C3.718,26.8674 3.66,26.7994 3.66,26.7994 C3.592,26.8224 3.559,27.0024 3.559,27.0024 C3.382,27.5464 2.569,29.1924 2.569,29.1924 C2.035,30.3814 1.534,31.9914 1.534,31.9914 C1.084,33.6954 1.22,34.9184 1.22,34.9184 C1.343,36.5624 2.241,37.8294 2.241,37.8294 C3.474,39.6854 5.381,40.3544 5.381,40.3544 C7.119,41.0994 9.347,40.7704 9.347,40.7704 C11.427,40.5284 12.552,40.0024 12.552,40.0024 C13.765,39.5524 15.183,38.8334 15.183,38.8334 C16.532,38.1434 17.848,37.2904 17.848,37.2904 C18.936,36.6244 20.207,35.6454 20.207,35.6454 C21.82,34.4344 21.79,34.2584 21.79,34.2584 C21.81,34.1044 21.778,34.0104 21.778,34.0104 C21.612,33.0374 20.942,31.7004 20.942,31.7004 C20.768,31.2664 20.117,29.8914 20.117,29.8914 C19.698,29.0364 19.427,27.9424 19.427,27.9424 C19.096,26.4274 18.96,25.9224 18.96,25.9224 C18.856,25.6854 18.706,25.5064 18.706,25.5064 C18.701,25.4114 18.739,25.2604 18.739,25.2604 C18.739,25.0934 19.472,23.0154 19.472,23.0154 C19.563,22.9524 19.841,23.3844 19.841,23.3844 C20.017,23.6094 20.5,24.4714 20.5,24.4714 C21.124,25.4834 21.6,26.4474 21.6,26.4474 C21.693,26.6384 21.477,26.6614 21.477,26.6614 C21.301,26.4914 20.577,26.0834 20.577,26.0834 C20.5,26.0834 20.573,26.3134 20.573,26.3134 C20.634,26.6294 20.934,27.2974 20.934,27.2974 C21.301,28.2064 21.835,29.2224 21.835,29.2224 C22.943,31.4574 22.754,32.8344 22.754,32.8344 C22.684,34.2604 21.704,36.4764 21.704,36.4764 C21.035,37.5634 18.457,39.2894 18.457,39.2894" id="Fill-22"></path>
                <path d="M39.1479,31.0804 C39.1479,31.0804 38.3799,31.4114 36.8159,32.1374 C36.8159,32.1374 35.5699,32.7234 34.7919,33.1854 C34.7919,33.1854 33.6769,33.8984 33.0349,34.5264 C33.0349,34.5264 32.1859,35.3734 31.9669,35.8084 C31.9669,35.8084 31.6129,36.7194 31.5659,37.1444 C31.5659,37.1444 31.3409,38.2864 31.4469,38.7874 C31.4469,38.7874 31.4219,38.9284 31.3239,38.8704 C31.3239,38.8704 30.0639,37.8964 29.2569,36.6004 C29.2569,36.6004 28.6399,35.7744 28.2529,34.3544 C28.2529,34.3544 28.0389,33.3784 27.9119,32.6884 C27.9119,32.6884 27.8269,32.1354 27.8179,31.9524 C27.8179,31.9524 27.8179,31.9774 27.9059,31.8894 C27.9059,31.8894 28.3129,31.4754 29.9019,31.4264 C29.9019,31.4264 33.0559,31.3564 34.8259,31.1674 C34.8259,31.1674 37.1049,30.9444 38.1419,30.7934 C38.1419,30.7934 39.0929,30.6904 39.7469,30.6024 C39.7469,30.6024 40.2149,30.5264 40.2529,30.5734 C40.2529,30.5734 40.5269,30.5074 39.1479,31.0804 M60.5479,28.0484 C60.5479,28.0484 61.1579,26.6854 61.9789,26.3694 C61.9789,26.3694 62.4879,26.2164 63.1519,27.1524 C63.1519,27.1524 63.5979,27.8524 63.8529,29.0094 C63.8529,29.0094 63.9879,29.3494 62.4879,30.1464 C62.4879,30.1464 61.8429,30.5264 61.1579,30.7434 C61.1579,30.7434 60.2749,31.1124 60.0989,30.9514 C60.0989,30.9514 60.1199,29.0224 60.5479,28.0484 M69.5929,31.0204 C69.5929,31.0204 69.1149,30.8534 69.1719,30.6904 C69.1719,30.6904 69.4669,30.1634 70.2079,29.8504 C70.2079,29.8504 70.5329,29.6714 71.4069,30.1684 C71.4069,30.1684 72.1329,30.5864 72.3599,30.9634 C72.3599,30.9634 70.7109,31.4624 69.5929,31.0204 M104.5169,26.0794 C103.2609,25.9554 101.1359,25.7944 101.1359,25.7944 C99.4109,25.6124 96.7459,24.9544 96.7459,24.9544 C95.8819,24.7714 92.2089,23.7154 92.2089,23.7154 C88.9729,22.6024 88.2279,22.6204 88.2279,22.6204 C85.8049,22.5244 84.8579,23.3514 84.8579,23.3514 C84.6549,23.5894 83.8699,25.1794 83.8699,25.1794 C83.6449,25.5864 83.7909,25.6124 83.7909,25.6124 C83.9519,25.5864 84.4399,25.5414 84.4399,25.5414 C85.5839,25.3854 87.0479,25.8394 87.0479,25.8394 C88.5359,26.3804 88.8859,26.1704 88.8859,26.1704 C89.1489,26.0984 89.5079,25.5744 89.5079,25.5744 C89.6229,25.5414 89.7479,25.5634 89.7479,25.5634 C89.9389,25.5994 91.8549,26.2104 91.8549,26.2104 C92.7989,26.4844 93.8109,26.6964 93.8109,26.6964 C95.2799,27.0144 95.3069,27.1054 95.3069,27.1054 C95.2479,27.1634 95.0909,27.2414 95.0909,27.2414 C94.6479,27.4604 92.8099,28.3224 92.8099,28.3224 C90.9609,29.2984 89.1699,29.8644 89.1699,29.8644 C86.1039,30.8384 84.5149,29.5654 84.5149,29.5654 C83.7849,29.0964 82.2269,27.3054 82.2269,27.3054 C81.4889,26.5504 80.2769,25.2594 80.2769,25.2594 C79.4049,24.3744 76.9859,22.3234 76.9859,22.3234 C75.5939,21.0434 72.8559,19.3014 72.8559,19.3014 C72.3259,18.9974 69.1529,16.8634 69.1529,16.8634 C68.0389,16.0924 65.9849,14.6284 65.9849,14.6284 C64.7459,13.7374 63.0779,12.4324 63.0779,12.4324 C62.5899,12.0784 62.8979,11.8974 62.8979,11.8974 C63.2159,11.5494 64.4109,10.6684 64.4109,10.6684 C65.1909,10.1274 66.8639,9.1834 66.8639,9.1834 C67.8799,8.6334 69.6119,7.7994 69.6119,7.7994 C70.5439,7.3264 72.6989,6.4124 72.6989,6.4124 C74.0249,5.8494 76.7499,4.8884 76.7499,4.8884 C78.4609,4.2514 80.3109,3.6814 80.3109,3.6814 C81.7839,3.1404 83.8949,2.8214 83.8949,2.8214 C85.1699,2.6734 85.5079,3.1634 85.5079,3.1634 C85.8899,3.4554 85.5589,4.0884 85.5589,4.0884 C85.3249,4.4084 84.7649,4.9584 84.7649,4.9584 C84.2559,5.5314 82.9999,6.8954 82.9999,6.8954 C82.2359,7.7684 81.2729,9.2664 81.2729,9.2664 C80.7759,10.1514 80.1479,11.4754 80.1479,11.4754 C79.6529,12.4724 79.1609,13.9094 79.1609,13.9094 C79.0419,14.3504 79.5019,14.1894 79.5019,14.1894 C79.6299,14.0324 79.7209,13.7094 79.7209,13.7094 C79.8889,13.1394 80.2319,12.4664 80.2319,12.4664 C80.5509,11.6704 81.3659,10.2504 81.3659,10.2504 C81.8519,9.2854 83.1689,7.8084 83.1689,7.8084 C83.4899,7.4244 84.1439,6.7004 84.1439,6.7004 C85.0069,5.8744 85.7429,4.7654 85.7429,4.7654 C86.2869,3.8104 86.5139,3.2524 86.5139,3.2524 C87.1479,1.7734 86.8679,1.2004 86.8679,1.2004 C86.7449,0.2564 85.0279,0.3494 85.0279,0.3494 C83.9519,0.3684 81.2639,1.1774 81.2639,1.1774 C80.3429,1.4164 77.4379,2.3614 77.4379,2.3614 C76.1239,2.8214 72.7519,4.0734 72.7519,4.0734 C71.2839,4.7124 67.7189,6.3944 67.7189,6.3944 C64.9969,7.6874 62.9909,9.3824 62.9909,9.3824 C62.1949,10.2904 62.2479,11.1054 62.2479,11.1054 C62.0959,13.4504 62.5899,14.4314 62.5899,14.4314 C62.8069,14.8324 65.1769,16.7274 65.1769,16.7274 C66.7029,17.8644 69.6229,20.4044 69.6229,20.4044 C70.8979,21.5634 73.0749,23.4344 73.0749,23.4344 C74.5279,24.7714 76.0779,26.6964 76.0779,26.6964 C77.3379,28.4134 77.1259,28.9944 77.1259,28.9944 C76.4399,29.5804 74.6829,30.2614 74.6829,30.2614 C74.3669,30.4524 74.3559,30.2314 74.3559,30.2314 C74.1999,29.7204 73.8429,29.0474 73.8429,29.0474 C73.3799,28.1284 72.3129,27.5044 72.3129,27.5044 C70.8509,26.8324 69.7959,27.8574 69.7959,27.8574 C68.5359,28.7714 68.0479,30.9424 68.0479,30.9424 C67.8349,32.9634 69.0129,33.5604 69.0129,33.5604 C69.8169,34.0834 71.4959,33.7204 71.4959,33.7204 C72.1669,33.5534 73.5709,33.1514 73.5709,33.1514 C73.6329,33.1794 73.6389,33.4254 73.6389,33.4254 C73.7179,33.8114 73.7099,34.1414 73.7099,34.1414 C73.4479,34.5054 72.9179,35.0844 72.9179,35.0844 C71.9349,36.3754 69.5689,38.1794 69.5689,38.1794 C67.8529,39.7694 65.6029,40.8784 65.6029,40.8784 C63.4329,41.9764 61.7879,41.2454 61.7879,41.2454 C60.2529,40.7164 59.3599,39.1204 59.3599,39.1204 C58.5989,37.8624 58.7959,36.2704 58.7959,36.2704 C58.8259,35.4054 59.3479,34.0254 59.3479,34.0254 C59.5319,33.5174 59.5639,33.5994 59.5639,33.5994 C59.9059,33.5174 60.9919,33.1874 60.9919,33.1874 C61.8429,32.8734 62.9909,32.0444 62.9909,32.0444 C63.5719,31.5904 63.6929,31.3844 63.6929,31.3844 C64.1579,30.4654 64.4109,29.6484 64.4109,29.6484 C64.7719,28.5064 64.7119,27.1054 64.7119,27.1054 C64.5529,25.6354 63.9799,24.7714 63.9799,24.7714 C63.3979,23.8104 62.7169,23.8404 62.7169,23.8404 C62.0229,23.7744 61.3469,24.7044 61.3469,24.7044 C60.6189,25.4314 60.0519,27.5854 60.0519,27.5854 C59.7309,28.6504 59.4489,31.1524 59.4489,31.1524 C58.3609,31.2614 57.5329,30.9634 57.5329,30.9634 C56.5699,30.5564 56.0369,29.6284 56.0369,29.6284 C55.3479,28.5134 54.8909,27.3354 54.8909,27.3354 C54.6429,26.8324 54.4479,26.8004 54.4479,26.8004 C53.6329,26.2024 51.9549,27.4474 51.9549,27.4474 C50.8169,28.1054 49.5119,31.3264 49.5119,31.3264 C49.1719,32.1874 48.2899,34.5394 48.2899,34.5394 C47.0169,37.6694 45.9679,37.0394 45.9679,37.0394 C44.9429,36.7844 43.8249,34.9684 43.8249,34.9684 C43.3239,34.0724 43.0439,32.5984 43.0439,32.5984 C42.9059,31.5744 43.1199,31.6124 43.1199,31.6124 C43.2609,31.5584 44.1349,31.2254 44.1349,31.2254 C44.9089,30.9304 47.1419,30.0284 47.1419,30.0284 C48.3109,29.6054 48.2559,29.4674 48.2559,29.4674 C48.4319,29.1914 49.0939,27.6534 49.0939,27.6534 C49.2529,27.2714 49.0369,27.2314 49.0369,27.2314 C48.7929,27.1904 46.2719,27.5964 46.2719,27.5964 C44.9829,27.7954 41.8689,28.0604 41.8689,28.0604 C40.8969,28.2244 37.3339,28.5764 37.3339,28.5764 C35.8629,28.7764 32.9879,28.8694 32.9879,28.8694 C32.7479,28.8694 32.9349,28.7524 32.9349,28.7524 C33.0729,28.6004 35.6589,27.2204 35.6589,27.2204 C37.4419,26.2384 42.7379,23.3924 42.7379,23.3924 C44.8669,22.2854 47.9029,20.6954 47.9029,20.6954 C48.1429,20.3474 48.7199,18.6474 48.7199,18.6474 C48.8119,18.3484 48.5949,18.3374 48.5949,18.3374 C48.3469,18.4434 45.9509,19.6834 45.9509,19.6834 C44.8969,20.2814 40.9619,22.1424 40.9619,22.1424 C38.9679,22.7284 36.2749,20.8904 36.2749,20.8904 C34.8019,19.8334 34.0529,18.4734 34.0529,18.4734 C33.4859,17.4234 33.4859,16.9414 33.4859,16.9414 C33.5439,16.6974 33.9259,16.4154 33.9259,16.4154 C35.0499,15.2444 38.1039,14.8324 38.1039,14.8324 C39.9269,14.4954 42.3009,14.8004 42.3009,14.8004 C43.5939,14.8874 44.6379,15.6514 44.6379,15.6514 C44.8199,15.6744 44.7969,15.4714 44.7969,15.4714 C44.7969,15.2204 42.8419,13.7904 42.8419,13.7904 C40.8369,12.3284 38.4429,12.4664 38.4429,12.4664 C36.0819,12.6384 34.1949,14.1124 34.1949,14.1124 C32.8729,15.2654 32.3829,17.2064 32.3829,17.2064 C32.0329,18.4864 32.7989,20.3114 32.7989,20.3114 C33.4439,21.8904 34.5559,22.8404 34.5559,22.8404 C35.4619,23.7064 36.7629,24.2454 36.7629,24.2454 C36.7819,24.3114 36.5949,24.3814 36.5949,24.3814 C35.7609,24.8564 32.7989,26.5094 32.7989,26.5094 C30.9269,27.5134 28.4109,29.4464 28.4109,29.4464 C28.3239,29.7264 27.8819,31.3374 27.8819,31.3374 C27.7969,31.6484 27.7679,31.5434 27.7679,31.5434 C27.6759,31.1404 27.4449,28.5804 27.4449,28.5804 C27.3729,27.4434 27.2029,24.4994 27.2029,24.4994 C27.1159,22.7964 26.8979,19.0534 26.8979,19.0534 C26.8259,17.4384 26.4349,12.4834 26.4349,12.4834 C26.3009,10.6624 26.0619,7.7934 26.0619,7.7934 C25.7409,4.4554 25.2099,2.8044 25.2099,2.8044 C24.9729,2.1444 24.6849,3.0104 24.6849,3.0104 C24.5639,3.3484 24.0179,4.9834 24.0179,4.9834 C24.1369,5.2404 24.3769,6.3784 24.3769,6.3784 C24.7369,7.6574 25.0449,12.1474 25.0449,12.1474 C25.1619,13.5504 25.5029,18.1814 25.5029,18.1814 C25.5899,19.5434 25.8149,23.4904 25.8149,23.4904 C25.9089,25.4214 26.1779,30.1344 26.1779,30.1344 C26.2569,31.8164 26.8259,35.1164 26.8259,35.1164 C27.3729,37.5084 28.4979,39.1994 28.4979,39.1994 C29.9389,41.2744 32.4319,42.6134 32.4319,42.6134 C34.0659,43.4734 36.6689,43.8514 36.6689,43.8514 C37.3079,43.9414 37.3189,43.6484 37.3189,43.6484 C37.5609,43.0024 37.7389,42.0194 37.7389,42.0194 C37.9149,41.2494 37.5779,41.1284 37.5779,41.1284 C34.9589,40.4364 33.9749,39.8144 33.9749,39.8144 C32.2919,38.9974 32.2709,37.5624 32.2709,37.5624 C32.5529,36.9794 34.0039,35.9904 34.0039,35.9904 C35.1329,35.1504 36.9579,34.3334 36.9579,34.3334 C38.1169,33.7524 39.3499,33.2264 39.3499,33.2264 C40.3069,32.7654 42.0599,32.0644 42.0599,32.0644 C42.5239,31.8274 42.4499,32.1094 42.4499,32.1094 C42.4609,32.5744 42.4819,33.5864 42.4819,33.5864 C42.5709,34.7604 42.7549,35.2074 42.7549,35.2074 C43.0689,36.3644 43.7549,37.2174 43.7549,37.2174 C45.3169,39.3264 46.6559,38.8924 46.6559,38.8924 C47.1799,38.8104 47.5279,38.4964 47.5279,38.4964 C48.0839,38.0894 48.6549,36.4644 48.6549,36.4644 C48.9559,35.6414 49.1899,34.9974 49.1899,34.9974 C49.5029,34.0724 50.3249,32.0544 50.3249,32.0544 C50.6899,31.0464 51.1859,30.5034 51.1859,30.5034 C51.7849,29.6674 52.7839,29.3214 52.7839,29.3214 C53.9809,28.7524 54.3479,30.1654 54.3479,30.1654 C54.7519,31.1934 55.5039,32.3174 55.5039,32.3174 C55.8229,32.6994 56.3319,33.1304 56.3319,33.1304 C57.3589,33.9114 58.6349,33.8074 58.6349,33.8074 C58.7549,33.8304 58.7219,33.9114 58.7219,33.9114 C58.5749,34.2484 58.4649,34.7494 58.2189,35.7464 C58.2189,35.7554 58.2159,35.7644 58.2159,35.7744 C57.9699,36.7714 57.9659,38.3164 57.9659,38.3164 C57.9559,39.0184 58.1099,39.5964 58.1099,39.5964 C58.4859,40.9564 59.2649,42.0814 59.2649,42.0814 C60.7419,44.0904 63.0669,44.1024 63.0669,44.1024 C64.8139,44.1024 66.7899,42.7274 66.7899,42.7274 C67.9359,41.9664 70.2229,40.0414 70.2229,40.0414 C70.8019,39.5514 72.4679,37.8924 72.4679,37.8924 C73.9999,36.2984 74.0509,35.9504 74.0509,35.9504 C74.2969,35.3884 74.5279,34.2314 74.5279,34.2314 C74.7089,33.5424 74.7279,32.6504 74.7279,32.6504 C74.7659,32.5744 74.9629,32.4874 74.9629,32.4874 C75.2579,32.3594 76.0239,31.9594 76.0239,31.9594 C76.7309,31.6644 77.1939,30.8814 77.1939,30.8814 C77.6629,29.7394 77.7269,27.9844 77.7269,27.9844 C77.7919,26.6374 77.3949,25.9154 77.3949,25.9154 C77.3509,25.7354 77.4479,25.7494 77.4479,25.7494 C77.5549,25.7944 78.5649,26.7454 78.5649,26.7454 C79.2769,27.3844 80.2559,28.4474 80.2559,28.4474 C81.0789,29.3214 82.5799,30.9194 82.5799,30.9194 C83.2269,31.6124 83.6449,32.0084 83.6449,32.0084 C84.4849,32.6884 85.5709,32.7444 85.5709,32.7444 C87.4449,32.8734 88.9329,32.2814 88.9329,32.2814 C90.5989,31.6684 91.8509,30.9894 91.8509,30.9894 C93.6029,30.0234 96.2029,28.8694 96.2029,28.8694 C98.2759,28.0814 100.4679,28.1844 100.4679,28.1844 C101.5439,28.1944 103.5219,28.4364 103.5219,28.4364 C103.9809,27.8074 104.5849,26.3204 104.6179,26.2374 L104.6179,26.2154 C104.6079,26.1104 104.5169,26.0794 104.5169,26.0794" id="Fill-24"></path>
                <path d="M85.3252,37.5335 C85.3252,37.1505 84.9242,36.7715 84.9242,36.7715 C84.4852,36.2635 83.8932,36.2275 83.8932,36.2275 C83.3492,36.2175 82.8272,37.1685 82.8272,37.1685 C82.4712,37.7255 82.2502,39.0825 82.2502,39.0825 C82.0782,40.2655 81.9702,41.2175 81.9002,41.2175 C81.8922,41.2175 81.8812,41.2105 81.8682,41.1995 C81.8132,41.0925 81.7522,40.7185 81.7522,40.7185 C81.6102,40.0965 81.0922,38.5555 81.0922,38.5555 C80.3792,36.9785 79.8232,36.7185 79.8232,36.7185 C79.3352,36.3975 79.0292,37.2335 79.0292,37.2335 C78.7072,37.8035 78.6912,38.0885 78.7312,38.2265 C78.6702,38.5535 78.8152,38.6225 78.8152,38.6225 C79.2242,38.8575 79.9272,39.7975 79.9272,39.7975 C80.0502,39.8785 80.1622,39.5745 80.1622,39.5745 C80.3342,39.2285 80.3792,39.4565 80.3792,39.4565 C80.5822,39.9545 80.6652,40.2305 80.6652,40.2305 C80.9692,41.1155 81.2272,42.2975 81.2272,42.2975 C81.3662,43.3135 81.6602,43.0065 81.6602,43.0065 C81.8772,42.7815 81.9702,42.4995 81.9702,42.4995 C82.2802,41.8305 82.4392,40.8075 82.4392,40.8075 C82.5792,39.7175 82.7362,38.9045 82.7362,38.9045 C82.9852,37.8455 83.4642,37.8035 83.4642,37.8035 C84.0292,37.5655 84.7012,38.5055 84.7012,38.5055 C84.9502,38.7895 84.9812,38.6385 84.9812,38.6385 C85.1452,38.4375 85.3252,37.8035 85.3252,37.8035 C85.3252,37.7435 85.3132,37.6845 85.2972,37.6265 C85.3142,37.5705 85.3252,37.5335 85.3252,37.5335" id="Fill-26"></path>
                <path d="M4.54,58.5159 L4.54,57.7299 C4.54,56.9439 4.405,56.8189 4.26,56.6429 L4.343,56.4149 C4.343,56.4149 4.747,56.2709 5.223,56.2709 C5.461,56.2709 5.699,56.2709 5.978,56.4059 C5.937,57.0989 5.926,57.2119 5.906,58.0709 C5.895,58.3709 5.895,59.0229 5.895,59.0229 C5.74,59.0229 5.595,59.0439 5.409,59.0849 C4.933,59.1779 4.054,59.3849 3.226,59.3849 C1.177,59.3849 0.049,57.9889 0.049,55.9699 C0.049,53.7869 1.456,52.2559 3.567,52.2559 C4.55,52.2559 5.471,52.6599 5.72,53.1659 C5.72,53.3629 5.44,54.0149 4.943,54.2329 L4.747,54.0769 C4.747,53.8079 4.24,52.9799 3.443,52.9799 C2.16,52.9799 1.601,54.2109 1.601,55.5259 C1.601,57.1609 2.284,58.6299 3.712,58.6299 C4.002,58.6299 4.54,58.5159 4.54,58.5159" id="Fill-28"></path>
                <path d="M8.3184,56.2913 C8.3184,57.6463 8.8454,58.7853 9.5604,58.7853 C10.1184,58.7853 10.5844,57.9783 10.5844,56.8503 C10.5844,55.5253 9.9844,54.4903 9.2594,54.4903 C8.5874,54.4903 8.3184,55.5463 8.3184,56.2913 M6.9114,56.7153 C6.9114,55.1113 8.0494,53.8693 9.6324,53.8693 C10.8634,53.8693 12.0024,54.7603 12.0024,56.5293 C12.0024,58.0293 10.8844,59.3853 9.2804,59.3853 C6.9624,59.3853 6.9114,56.8813 6.9114,56.7153" id="Fill-30"></path>
                <path d="M15.625,58.6712 L15.376,59.5302 L15.014,59.4272 C14.435,59.3232 14.217,58.8582 14.176,58.6712 C13.876,57.7302 13.576,56.7262 13.276,55.7952 C12.924,54.6662 12.437,54.4492 12.396,54.4392 L12.386,54.2532 C12.603,54.0982 13.007,53.9222 13.338,53.9222 C13.948,53.9222 14.155,54.2332 14.3,54.7912 C14.341,55.0282 14.486,55.6182 15.107,57.3572 C15.128,57.4082 15.304,57.8222 15.325,57.8742 C15.325,57.8742 15.376,57.5322 15.459,57.3052 L16.163,55.4422 C16.225,55.2672 16.308,55.0192 16.308,54.7912 C16.308,54.6252 16.256,54.5122 16.132,54.4392 L16.132,54.2532 C16.318,54.0762 16.68,53.9222 16.97,53.9222 C17.26,53.9222 17.353,54.0982 17.353,54.3052 C17.353,54.5842 17.187,54.9872 17.094,55.2152 L15.625,58.6712 Z" id="Fill-32"></path>
                <path d="M19.1338,55.9915 C19.7438,55.9805 20.3238,55.9395 20.9658,55.9295 C20.9548,55.2985 20.7068,54.5535 20.0958,54.5535 C19.5168,54.5535 19.2788,55.2255 19.1338,55.9915 L19.1338,55.9915 Z M22.1138,56.4055 C21.9068,56.4875 21.6788,56.5085 21.4208,56.5085 L19.1238,56.4775 C19.1338,56.5915 19.1338,56.7465 19.1338,56.8605 C19.1648,57.9365 19.9098,58.4745 20.5508,58.4745 C21.0378,58.4745 21.7728,58.2995 22.2898,57.5225 C22.5798,58.6615 21.2968,59.3855 20.1068,59.3855 C18.9168,59.3855 17.8408,58.6615 17.8198,56.9015 C17.8198,55.2355 18.7408,53.9225 20.1578,53.9225 C22.1238,53.9225 22.2068,55.6185 22.2068,56.1265 L22.2068,56.3635 L22.1138,56.4055 Z" id="Fill-34"></path>
                <path d="M23.6152,59.2503 C23.6152,58.6403 23.6672,57.1403 23.6672,55.7223 C23.6672,54.6883 23.2742,54.5123 23.1392,54.4703 L23.1392,54.2833 C23.3662,54.1393 23.7492,53.9223 24.2462,53.9223 C24.6712,53.9223 24.8982,54.1293 24.8982,54.5423 C24.8982,54.5733 24.8572,54.8323 24.8362,55.0283 C24.9912,54.6463 25.6122,53.8693 26.2642,53.8693 C26.8952,53.8693 27.1232,54.2533 27.1232,54.5843 C27.1232,54.9363 26.8642,55.2573 26.4502,55.2573 C26.4192,55.2573 26.3782,55.2463 26.3362,55.2463 C26.2742,54.9463 26.0782,54.8323 25.8612,54.8323 C25.0022,54.8323 24.8882,55.7953 24.8882,56.8293 C24.8882,57.8023 24.8982,58.4543 25.0222,59.2503 L23.6152,59.2503 Z" id="Fill-36"></path>
                <path d="M31.1802,59.2503 C31.1802,59.2503 31.1492,59.0963 31.1492,58.9193 C31.1492,58.1033 31.1702,57.0573 31.1702,56.2393 C31.1802,55.2873 31.0462,54.8323 30.5492,54.8323 C29.9592,54.8323 29.5972,55.0803 29.3172,55.3393 C29.3172,55.7953 29.2972,57.3783 29.3482,58.4343 C29.3592,58.6503 29.3902,59.0223 29.4312,59.2503 L27.9822,59.2503 L27.9932,58.9303 L28.0342,55.7223 C28.0452,54.5633 27.5072,54.4703 27.5072,54.4703 L27.5072,54.2833 C27.7442,54.1393 28.1272,53.9223 28.6242,53.9223 C29.0592,53.9223 29.2862,54.2223 29.3272,54.5123 L29.3172,54.8013 C29.7002,54.4083 30.2902,53.8693 31.0462,53.8693 C31.9152,53.8693 32.4632,54.4903 32.4842,55.2353 C32.4842,56.8923 32.4112,57.9573 32.5872,59.2503 L31.1802,59.2503 Z" id="Fill-38"></path>
                <path d="M37.4004,59.2503 C37.4004,59.2503 37.3694,59.0963 37.3694,58.9193 C37.3694,58.1033 37.3904,57.0573 37.3904,56.2393 C37.4004,55.2873 37.2664,54.8323 36.7694,54.8323 C36.1794,54.8323 35.8174,55.0803 35.5374,55.3393 C35.5374,55.7953 35.5174,57.3783 35.5684,58.4343 C35.5794,58.6503 35.6104,59.0223 35.6514,59.2503 L34.2034,59.2503 L34.2134,58.9303 L34.2544,55.7223 C34.2654,54.5633 33.7274,54.4703 33.7274,54.4703 L33.7274,54.2833 C33.9644,54.1393 34.3484,53.9223 34.8444,53.9223 C35.2684,53.9223 35.4854,54.1903 35.5484,54.5013 L35.5374,54.7913 C35.9204,54.3973 36.5104,53.8693 37.2664,53.8693 C37.9694,53.8693 38.4664,54.2833 38.6314,54.8323 C38.9324,54.4383 39.6464,53.8693 40.3594,53.8693 C41.2294,53.8693 41.7774,54.4903 41.7984,55.2353 C41.7984,56.8923 41.7254,57.9573 41.9014,59.2503 L40.4944,59.2503 C40.4944,59.2503 40.4634,59.0963 40.4634,58.9193 C40.4634,58.1033 40.4834,57.0573 40.4834,56.2393 C40.4944,55.2873 40.3594,54.8323 39.8634,54.8323 C39.3254,54.8323 38.9734,55.0393 38.7044,55.2773 C38.7044,56.9123 38.6314,57.9673 38.8074,59.2503 L37.4004,59.2503 Z" id="Fill-40"></path>
                <path d="M44.3247,55.9915 C44.9357,55.9805 45.5147,55.9395 46.1567,55.9295 C46.1457,55.2985 45.8977,54.5535 45.2867,54.5535 C44.7077,54.5535 44.4697,55.2255 44.3247,55.9915 L44.3247,55.9915 Z M47.3047,56.4055 C47.0977,56.4875 46.8707,56.5085 46.6117,56.5085 L44.3147,56.4775 C44.3247,56.5915 44.3247,56.7465 44.3247,56.8605 C44.3557,57.9365 45.1007,58.4745 45.7427,58.4745 C46.2287,58.4745 46.9637,58.2995 47.4807,57.5225 C47.7707,58.6615 46.4877,59.3855 45.2977,59.3855 C44.1077,59.3855 43.0317,58.6615 43.0107,56.9015 C43.0107,55.2355 43.9317,53.9225 45.3487,53.9225 C47.3157,53.9225 47.3977,55.6185 47.3977,56.1265 L47.3977,56.3635 L47.3047,56.4055 Z" id="Fill-42"></path>
                <path d="M51.9834,59.2503 C51.9834,59.2503 51.9524,59.0963 51.9524,58.9193 C51.9524,58.1033 51.9724,57.0573 51.9724,56.2393 C51.9834,55.2873 51.8484,54.8323 51.3524,54.8323 C50.7624,54.8323 50.4004,55.0803 50.1204,55.3393 C50.1204,55.7953 50.1004,57.3783 50.1514,58.4343 C50.1624,58.6503 50.1924,59.0223 50.2344,59.2503 L48.7854,59.2503 L48.7954,58.9303 L48.8374,55.7223 C48.8474,54.5633 48.3094,54.4703 48.3094,54.4703 L48.3094,54.2833 C48.5474,54.1393 48.9304,53.9223 49.4274,53.9223 C49.8614,53.9223 50.0894,54.2223 50.1304,54.5123 L50.1204,54.8013 C50.5034,54.4083 51.0934,53.8693 51.8484,53.8693 C52.7174,53.8693 53.2664,54.4903 53.2874,55.2353 C53.2874,56.8923 53.2144,57.9573 53.3904,59.2503 L51.9834,59.2503 Z" id="Fill-44"></path>
                <path d="M56.3101,54.0257 L57.2721,54.0257 C57.4071,54.0257 57.7481,53.9947 57.8211,53.8597 C57.8411,53.9317 57.8521,54.0257 57.8521,54.1077 C57.8521,54.4187 57.6961,54.7287 56.9621,54.7287 C56.7961,54.7287 56.4551,54.6977 56.2791,54.6977 L56.2791,57.0257 C56.2791,57.6157 56.2271,58.4547 56.9311,58.4547 C57.2931,58.4547 57.8831,58.3197 58.0071,58.0707 C58.2861,58.7437 57.4371,59.3847 56.5171,59.3847 C55.2231,59.3847 54.9751,58.7547 54.9751,57.6887 C54.9751,56.9327 55.0791,56.1467 55.0791,55.4427 C55.0791,55.2147 55.0581,54.8217 54.9851,54.7287 C54.8401,54.5427 54.7061,54.4387 54.4681,54.3567 L54.5191,54.0467 C54.5611,54.0467 55.0891,54.0257 55.5961,53.1667 L56.4241,53.1667 L56.3101,54.0257 Z" id="Fill-46"></path>
                <path d="M70.689,54.0257 C70.824,54.0257 71.165,53.9947 71.237,53.8597 C71.258,53.9317 71.269,54.0257 71.269,54.1077 C71.269,54.4187 71.113,54.7287 70.378,54.7287 C70.213,54.7287 69.985,54.6977 69.81,54.6977 L69.81,55.3077 C69.81,56.3747 69.83,58.5577 69.985,59.2507 L68.537,59.2507 C68.547,59.0337 68.588,56.8087 68.588,55.8977 C68.588,55.2977 68.578,54.8737 68.495,54.7597 C68.268,54.4287 67.999,54.3567 67.999,54.3567 L68.05,54.0467 C68.268,54.0257 68.588,53.8797 68.63,53.4567 C68.795,51.7687 69.799,51.3247 70.596,51.3247 C71.352,51.3247 71.837,51.7177 71.837,52.1527 C71.837,52.4837 71.559,52.7007 71.248,52.7007 C71.113,52.7007 70.979,52.6597 70.855,52.5657 C70.875,52.3697 70.782,52.0797 70.337,52.0797 C69.892,52.0797 69.737,52.4417 69.737,52.9277 C69.737,53.0007 69.748,53.0627 69.748,53.1347 L69.799,53.8387 C69.799,53.8907 69.799,53.9637 69.789,54.0257 L70.689,54.0257 Z" id="Fill-48"></path>
                <path d="M77.9917,53.6624 L77.0397,56.3224 L78.9237,56.3224 L77.9917,53.6624 Z M81.1477,58.3604 C81.2827,58.7544 81.4067,59.0334 81.5407,59.2504 L79.8857,59.2504 C79.8857,59.2504 79.8857,59.0224 79.7827,58.7434 L79.1717,57.0054 L76.8017,57.0054 L76.0677,59.0854 C76.0357,59.1784 76.0357,59.2504 76.0357,59.2504 L75.0537,59.2504 L77.3817,53.2804 C77.5677,52.5764 78.2197,52.2344 79.0687,52.1734 C79.1197,52.4634 79.2337,52.8874 79.3057,53.0834 L81.1477,58.3604 Z" id="Fill-50"></path>
                <path d="M82.2871,52.597 C82.2871,52.98 82.6191,53.29 83.0121,53.29 C83.3841,53.29 83.7051,52.98 83.7051,52.597 C83.7051,52.194 83.3841,51.872 83.0121,51.872 C82.6191,51.872 82.2871,52.194 82.2871,52.597 L82.2871,52.597 Z M82.4631,55.609 C82.4631,54.947 82.2041,54.564 81.9351,54.47 L81.9351,54.284 C81.9351,54.284 82.4431,53.922 83.0121,53.922 C84.0161,53.922 83.7881,55.049 83.7571,55.774 C83.7251,56.447 83.7571,55.618 83.7571,59.375 C83.7571,60.99 82.7111,61.827 81.7901,61.827 C81.5531,61.827 81.3771,61.672 81.2731,61.537 C81.9351,61.528 82.4631,60.327 82.4631,59.396 L82.4631,55.609 Z" id="Fill-52"></path>
                <path d="M88.6724,59.2503 C88.6724,59.2503 88.6414,59.0963 88.6414,58.9193 C88.6414,58.1033 88.6624,57.0573 88.6624,56.2393 C88.6724,55.2873 88.5384,54.8323 88.0414,54.8323 C87.4514,54.8323 87.0894,55.0803 86.8104,55.3393 C86.8104,55.7953 86.7894,57.3783 86.8404,58.4343 C86.8514,58.6503 86.8824,59.0223 86.9234,59.2503 L85.4754,59.2503 L85.4854,58.9303 L85.5264,55.7223 C85.5374,54.5633 84.9994,54.4703 84.9994,54.4703 L84.9994,54.2833 C85.2374,54.1393 85.6194,53.9223 86.1164,53.9223 C86.5414,53.9223 86.7584,54.1903 86.8204,54.5013 L86.8104,54.7913 C87.1934,54.3973 87.7824,53.8693 88.5384,53.8693 C89.2414,53.8693 89.7384,54.2833 89.9034,54.8323 C90.2044,54.4383 90.9184,53.8693 91.6314,53.8693 C92.5014,53.8693 93.0494,54.4903 93.0704,55.2353 C93.0704,56.8923 92.9984,57.9573 93.1734,59.2503 L91.7664,59.2503 C91.7664,59.2503 91.7354,59.0963 91.7354,58.9193 C91.7354,58.1033 91.7564,57.0573 91.7564,56.2393 C91.7664,55.2873 91.6314,54.8323 91.1354,54.8323 C90.5974,54.8323 90.2454,55.0393 89.9764,55.2773 C89.9764,56.9123 89.9034,57.9673 90.0804,59.2503 L88.6724,59.2503 Z" id="Fill-54"></path>
                <path d="M95.4111,57.8128 C95.4111,58.2888 95.7631,58.5788 96.1141,58.5788 C96.5281,58.5788 96.8801,58.3718 97.0151,58.2778 C96.9941,57.8128 96.9941,57.2748 96.9941,56.8708 C96.5381,56.8918 95.4111,57.0048 95.4111,57.8128 M99.1461,58.8468 L99.1461,59.0748 C98.8981,59.2298 98.3701,59.3848 97.9871,59.3848 C97.5011,59.3848 97.1601,58.9188 97.1181,58.6298 C96.8591,59.1368 96.2281,59.3848 95.7521,59.3848 C94.6551,59.3848 94.1791,58.6918 94.1791,58.0198 C94.1791,57.0048 95.1931,56.4158 96.3631,56.4158 C96.5801,56.4158 96.7971,56.4468 96.9941,56.4988 C97.0041,56.2808 97.0151,56.0638 97.0151,55.8568 C97.0151,55.1118 96.9011,54.4808 96.2691,54.4808 C95.8251,54.4808 95.5451,54.8428 95.6381,55.2978 C95.4621,55.4428 95.2551,55.5148 95.0591,55.5148 C94.7381,55.5148 94.4581,55.3078 94.4581,54.9668 C94.4581,54.2938 95.3791,53.8698 96.2691,53.8698 C97.5111,53.8698 98.3181,54.4088 98.3181,55.4848 C98.3181,55.8878 98.2981,56.2188 98.2981,57.0158 C98.2981,57.4188 98.2981,58.2478 98.4221,58.5048 C98.6081,58.8688 99.1151,58.8468 99.1461,58.8468" id="Fill-56"></path>
                <path d="M103.2554,59.2503 C103.2554,59.2503 103.2244,59.0963 103.2244,58.9193 C103.2244,58.1033 103.2454,57.0573 103.2454,56.2393 C103.2554,55.2873 103.1204,54.8323 102.6244,54.8323 C102.0344,54.8323 101.6724,55.0803 101.3924,55.3393 C101.3924,55.7953 101.3724,57.3783 101.4234,58.4343 C101.4344,58.6503 101.4654,59.0223 101.5064,59.2503 L100.0574,59.2503 L100.0684,58.9303 L100.1094,55.7223 C100.1204,54.5633 99.5824,54.4703 99.5824,54.4703 L99.5824,54.2833 C99.8194,54.1393 100.2024,53.9223 100.6994,53.9223 C101.1334,53.9223 101.3614,54.2223 101.4024,54.5123 L101.3924,54.8013 C101.7754,54.4083 102.3654,53.8693 103.1204,53.8693 C103.9904,53.8693 104.5384,54.4903 104.5594,55.2353 C104.5594,56.8923 104.4864,57.9573 104.6624,59.2503 L103.2554,59.2503 Z" id="Fill-58"></path>
                <path d="M63.4863,56.1985 C63.4863,57.5535 64.0143,58.6925 64.7283,58.6925 C65.2873,58.6925 65.7533,57.8855 65.7533,56.7575 C65.7533,55.4325 65.1523,54.3975 64.4283,54.3975 C63.7553,54.3975 63.4863,55.4535 63.4863,56.1985 M62.0793,56.6225 C62.0793,55.0185 63.2173,53.7775 64.8003,53.7775 C66.0323,53.7775 67.1703,54.6675 67.1703,56.4365 C67.1703,57.9365 66.0523,59.2925 64.4483,59.2925 C62.1313,59.2925 62.0793,56.7885 62.0793,56.6225" id="Fill-60"></path>
                <path d="M158.332,57.3479 C158.332,54.6109 160.096,52.6919 162.741,52.6919 C163.974,52.6919 165.128,53.1979 165.439,53.8309 C165.439,54.0779 165.09,54.8959 164.467,55.1689 L164.221,54.9749 C164.221,54.6369 163.585,53.5989 162.586,53.5989 C160.978,53.5989 160.277,55.1429 160.277,56.7889 C160.277,58.8389 161.134,60.5769 162.924,60.5769 C163.688,60.5769 164.934,60.0969 165.401,59.1899 C165.881,60.6029 164.233,61.6539 162.353,61.6269 C159.745,61.6269 158.332,59.8759 158.332,57.3479" id="Fill-62"></path>
                <path d="M167.8027,52.2112 C168.2687,52.2112 168.6707,52.6122 168.6707,53.1182 C168.6707,53.5992 168.2687,53.9872 167.8027,53.9872 C167.3087,53.9872 166.8937,53.5992 166.8937,53.1182 C166.8937,52.6122 167.3087,52.2112 167.8027,52.2112 M168.8647,61.4592 L167.0497,61.4592 L167.1147,57.0362 C167.1147,55.5842 166.4647,55.4672 166.4517,55.4672 L166.4517,55.2322 C166.7517,55.0522 167.2307,54.7782 167.8537,54.7782 C168.5927,54.7782 168.7867,55.3372 168.7867,56.0122 C168.7867,56.4142 168.7227,56.8802 168.7227,57.3592 L168.7227,58.6312 C168.7227,59.6172 168.7347,60.5382 168.8647,61.4592" id="Fill-64"></path>
                <path d="M172.5234,54.9085 L173.7304,54.9085 C173.8984,54.9085 174.3264,54.8695 174.4174,54.7015 C174.4434,54.7925 174.4574,54.9085 174.4574,55.0125 C174.4574,55.4015 174.2614,55.7915 173.3414,55.7915 C173.1334,55.7915 172.7064,55.7525 172.4854,55.7525 L172.4854,58.6705 C172.4854,59.4105 172.4204,60.4615 173.3014,60.4615 C173.7564,60.4615 174.4964,60.2915 174.6514,59.9795 C175.0024,60.8235 173.9374,61.6275 172.7834,61.6275 C171.1624,61.6275 170.8504,60.8365 170.8504,59.5005 C170.8504,58.5545 170.9794,57.5665 170.9794,56.6855 C170.9794,56.4005 170.9554,55.9065 170.8624,55.7915 C170.6814,55.5575 170.5134,55.4285 170.2144,55.3235 L170.2794,54.9345 C170.3324,54.9345 170.9934,54.9085 171.6284,53.8315 L172.6664,53.8315 L172.5234,54.9085 Z" id="Fill-66"></path>
                <path d="M176.7266,52.2112 C177.1946,52.2112 177.5956,52.6122 177.5956,53.1182 C177.5956,53.5992 177.1946,53.9872 176.7266,53.9872 C176.2336,53.9872 175.8186,53.5992 175.8186,53.1182 C175.8186,52.6122 176.2336,52.2112 176.7266,52.2112 M177.7896,61.4592 L175.9746,61.4592 L176.0396,57.0362 C176.0396,55.5842 175.3906,55.4672 175.3786,55.4672 L175.3786,55.2322 C175.6766,55.0522 176.1566,54.7782 176.7796,54.7782 C177.5186,54.7782 177.7126,55.3372 177.7126,56.0122 C177.7126,56.4142 177.6486,56.8802 177.6486,57.3592 L177.6486,58.6312 C177.6486,59.6172 177.6616,60.5382 177.7896,61.4592" id="Fill-68"></path>
                <path d="M183.0312,60.5892 C183.7972,60.5892 184.3422,60.2912 184.3932,59.9022 L184.6772,59.9022 C184.7702,60.0322 184.8852,61.0042 184.4702,61.4592 L182.6422,61.4592 L178.9462,61.4592 L178.8932,61.1212 C178.8932,61.1212 179.0882,60.9532 179.2312,60.7332 C180.1652,59.2402 181.2422,57.5802 182.1752,56.1032 C182.2272,56.0242 182.3702,55.8432 182.4742,55.7912 L180.6972,55.7912 C179.9312,55.7912 179.3852,56.0892 179.3352,56.4792 L179.0502,56.4792 C178.9592,56.3482 178.8432,55.2842 179.2582,54.8312 L181.0862,54.9082 L184.5742,54.9082 L184.6272,55.1932 C184.6272,55.1932 184.4062,55.3632 184.2382,55.6352 L181.3842,60.2402 C181.2802,60.4082 181.0592,60.5892 181.0592,60.5892 L183.0312,60.5892 Z" id="Fill-70"></path>
                <path d="M187.0908,57.3724 C187.8578,57.3594 188.5828,57.3094 189.3868,57.2954 C189.3738,56.5044 189.0648,55.5704 188.2978,55.5704 C187.5718,55.5704 187.2738,56.4144 187.0908,57.3724 L187.0908,57.3724 Z M190.8268,57.8924 C190.5688,57.9954 190.2828,58.0214 189.9588,58.0214 L187.0788,57.9824 C187.0908,58.1254 187.0908,58.3194 187.0908,58.4634 C187.1308,59.8114 188.0648,60.4854 188.8678,60.4854 C189.4798,60.4854 190.4008,60.2654 191.0478,59.2934 C191.4108,60.7204 189.8018,61.6274 188.3118,61.6274 C186.8198,61.6274 185.4708,60.7204 185.4448,58.5144 C185.4448,56.4274 186.5988,54.7784 188.3758,54.7784 C190.8398,54.7784 190.9438,56.9064 190.9438,57.5424 L190.9438,57.8404 L190.8268,57.8924 Z" id="Fill-72"></path>
                <path d="M196.6914,61.4593 C196.6914,61.4593 196.6524,61.2653 196.6524,61.0443 C196.6524,60.0203 196.6784,58.7103 196.6784,57.6843 C196.6914,56.4913 196.5224,55.9203 195.8994,55.9203 C195.1604,55.9203 194.7074,56.2313 194.3564,56.5563 C194.3564,57.1273 194.3304,59.1113 194.3954,60.4353 C194.4094,60.7063 194.4474,61.1743 194.4994,61.4593 L192.6824,61.4593 L192.6964,61.0573 L192.7494,57.0363 C192.7614,55.5843 192.0874,55.4673 192.0874,55.4673 L192.0874,55.2323 C192.3844,55.0523 192.8644,54.7783 193.4864,54.7783 C194.0324,54.7783 194.3164,55.1553 194.3694,55.5183 L194.3564,55.8823 C194.8374,55.3903 195.5754,54.7143 196.5224,54.7143 C197.6124,54.7143 198.2984,55.4913 198.3254,56.4273 C198.3254,58.5023 198.2354,59.8383 198.4564,61.4593 L196.6914,61.4593 Z" id="Fill-74"></path>
                <path d="M203.5928,56.6351 C203.3078,55.7521 202.5418,55.5051 202.0498,55.5051 C201.6348,55.5051 201.0258,55.6611 201.0258,56.2581 C201.0258,57.3091 204.5528,57.4891 204.5528,59.4751 C204.5528,60.8631 203.4508,61.6271 201.9858,61.6271 C200.7908,61.6271 199.8838,60.8761 199.8838,60.0971 C199.8838,59.9151 199.9228,59.7471 200.0268,59.5911 C200.0778,60.2141 201.1288,60.7721 201.9458,60.7721 C202.5308,60.7721 203.1778,60.5771 203.1778,59.9931 C203.1778,58.9951 199.8578,58.8251 199.8578,56.7891 C199.8578,55.5181 200.8438,54.7141 202.3228,54.7141 C203.2548,54.7141 203.8398,55.0121 204.1638,55.2071 C204.2548,55.5051 204.2928,56.2061 203.8258,56.6861 L203.5928,56.6351 Z" id="Fill-76"></path>
                <path d="M212.4141,54.4544 L211.2221,57.7874 L213.5821,57.7874 L212.4141,54.4544 Z M216.3711,60.3444 C216.5391,60.8364 216.6951,61.1864 216.8631,61.4594 L214.7881,61.4594 C214.7881,61.4594 214.7881,61.1744 214.6581,60.8234 L213.8931,58.6434 L210.9221,58.6434 L210.0011,61.2514 C209.9641,61.3684 209.9641,61.4594 209.9641,61.4594 L208.7311,61.4594 L211.6501,53.9754 C211.8831,53.0944 212.6991,52.6654 213.7641,52.5864 C213.8271,52.9504 213.9711,53.4824 214.0611,53.7294 L216.3711,60.3444 Z" id="Fill-78"></path>
                <path d="M220.627,54.9085 C220.796,54.9085 221.223,54.8695 221.314,54.7015 C221.34,54.7925 221.353,54.9085 221.353,55.0125 C221.353,55.4015 221.158,55.7915 220.237,55.7915 C220.03,55.7915 219.745,55.7525 219.524,55.7525 L219.524,56.5175 C219.524,57.8535 219.551,60.5895 219.745,61.4595 L217.929,61.4595 C217.941,61.1865 217.993,58.3975 217.993,57.2575 C217.993,56.5045 217.981,55.9725 217.877,55.8295 C217.591,55.4145 217.255,55.3235 217.255,55.3235 L217.319,54.9345 C217.591,54.9085 217.993,54.7275 218.046,54.1955 C218.253,52.0805 219.512,51.5235 220.51,51.5235 C221.457,51.5235 222.066,52.0165 222.066,52.5615 C222.066,52.9765 221.717,53.2485 221.326,53.2485 C221.158,53.2485 220.99,53.1975 220.834,53.0805 C220.86,52.8335 220.743,52.4705 220.186,52.4705 C219.628,52.4705 219.434,52.9245 219.434,53.5335 C219.434,53.6245 219.445,53.7035 219.445,53.7935 L219.512,54.6755 C219.512,54.7405 219.512,54.8315 219.498,54.9085 L220.627,54.9085 Z" id="Fill-80"></path>
                <path d="M224.8164,54.9085 C224.9844,54.9085 225.4134,54.8695 225.5044,54.7015 C225.5294,54.7925 225.5434,54.9085 225.5434,55.0125 C225.5434,55.4015 225.3484,55.7915 224.4274,55.7915 C224.2204,55.7915 223.9354,55.7525 223.7144,55.7525 L223.7144,56.5175 C223.7144,57.8535 223.7394,60.5895 223.9354,61.4595 L222.1194,61.4595 C222.1314,61.1865 222.1844,58.3975 222.1844,57.2575 C222.1844,56.5045 222.1704,55.9725 222.0674,55.8295 C221.7814,55.4145 221.4454,55.3235 221.4454,55.3235 L221.5084,54.9345 C221.7814,54.9085 222.1844,54.7275 222.2354,54.1955 C222.4434,52.0805 223.7014,51.5235 224.6994,51.5235 C225.6464,51.5235 226.2554,52.0165 226.2554,52.5615 C226.2554,52.9765 225.9074,53.2485 225.5164,53.2485 C225.3484,53.2485 225.1804,53.1975 225.0244,53.0805 C225.0504,52.8335 224.9334,52.4705 224.3754,52.4705 C223.8184,52.4705 223.6244,52.9245 223.6244,53.5335 C223.6244,53.6245 223.6364,53.7035 223.6364,53.7935 L223.7014,54.6755 C223.7014,54.7405 223.7014,54.8315 223.6884,54.9085 L224.8164,54.9085 Z" id="Fill-82"></path>
                <path d="M227.3086,59.6556 C227.3086,60.2536 227.7496,60.6156 228.1896,60.6156 C228.7086,60.6156 229.1496,60.3566 229.3186,60.2406 C229.2926,59.6556 229.2926,58.9816 229.2926,58.4756 C228.7216,58.5026 227.3086,58.6436 227.3086,59.6556 M231.9916,60.9536 L231.9916,61.2386 C231.6796,61.4326 231.0176,61.6276 230.5376,61.6276 C229.9276,61.6276 229.5006,61.0446 229.4486,60.6796 C229.1236,61.3156 228.3326,61.6276 227.7366,61.6276 C226.3616,61.6276 225.7646,60.7596 225.7646,59.9156 C225.7646,58.6436 227.0356,57.9046 228.5006,57.9046 C228.7746,57.9046 229.0456,57.9446 229.2926,58.0086 C229.3046,57.7366 229.3186,57.4656 229.3186,57.2046 C229.3186,56.2706 229.1756,55.4796 228.3836,55.4796 C227.8276,55.4796 227.4766,55.9326 227.5936,56.5046 C227.3726,56.6856 227.1146,56.7766 226.8676,56.7766 C226.4646,56.7766 226.1146,56.5176 226.1146,56.0896 C226.1146,55.2466 227.2686,54.7146 228.3836,54.7146 C229.9406,54.7146 230.9536,55.3896 230.9536,56.7366 C230.9536,57.2446 230.9266,57.6596 230.9266,58.6576 C230.9266,59.1636 230.9266,60.2006 231.0816,60.5256 C231.3156,60.9796 231.9516,60.9536 231.9916,60.9536" id="Fill-84"></path>
                <path d="M233.9375,52.2112 C234.4045,52.2112 234.8055,52.6122 234.8055,53.1182 C234.8055,53.5992 234.4045,53.9872 233.9375,53.9872 C233.4435,53.9872 233.0285,53.5992 233.0285,53.1182 C233.0285,52.6122 233.4435,52.2112 233.9375,52.2112 M234.9995,61.4592 L233.1855,61.4592 L233.2495,57.0362 C233.2495,55.5842 232.6005,55.4672 232.5865,55.4672 L232.5865,55.2322 C232.8865,55.0522 233.3665,54.7782 233.9895,54.7782 C234.7285,54.7782 234.9225,55.3372 234.9225,56.0122 C234.9225,56.4142 234.8585,56.8802 234.8585,57.3592 L234.8585,58.6312 C234.8585,59.6172 234.8705,60.5382 234.9995,61.4592" id="Fill-86"></path>
                <path d="M271.2275,52.2112 C271.6945,52.2112 272.0955,52.6122 272.0955,53.1182 C272.0955,53.5992 271.6945,53.9872 271.2275,53.9872 C270.7335,53.9872 270.3185,53.5992 270.3185,53.1182 C270.3185,52.6122 270.7335,52.2112 271.2275,52.2112 M272.2895,61.4592 L270.4745,61.4592 L270.5395,57.0362 C270.5395,55.5842 269.8905,55.4672 269.8765,55.4672 L269.8765,55.2322 C270.1765,55.0522 270.6565,54.7782 271.2785,54.7782 C272.0185,54.7782 272.2125,55.3372 272.2125,56.0122 C272.2125,56.4142 272.1485,56.8802 272.1485,57.3592 L272.1485,58.6312 C272.1485,59.6172 272.1605,60.5382 272.2895,61.4592" id="Fill-88"></path>
                <path d="M237.0508,61.4593 C237.0508,60.6933 237.1148,58.8133 237.1148,57.0363 C237.1148,55.7383 236.6218,55.5183 236.4538,55.4673 L236.4538,55.2323 C236.7388,55.0523 237.2188,54.7783 237.8418,54.7783 C238.3728,54.7783 238.6578,55.0383 238.6578,55.5583 C238.6578,55.5973 238.6078,55.9203 238.5808,56.1673 C238.7758,55.6883 239.5548,54.7143 240.3708,54.7143 C241.1618,54.7143 241.4478,55.1933 241.4478,55.6083 C241.4478,56.0503 241.1238,56.4523 240.6058,56.4523 C240.5658,56.4523 240.5148,56.4383 240.4618,56.4383 C240.3848,56.0633 240.1378,55.9203 239.8648,55.9203 C238.7878,55.9203 238.6468,57.1273 238.6468,58.4233 C238.6468,59.6433 238.6578,60.4613 238.8148,61.4593 L237.0508,61.4593 Z" id="Fill-90"></path>
                <path d="M245.6387,56.6351 C245.3537,55.7521 244.5877,55.5051 244.0947,55.5051 C243.6797,55.5051 243.0707,55.6611 243.0707,56.2581 C243.0707,57.3091 246.5987,57.4891 246.5987,59.4751 C246.5987,60.8631 245.4967,61.6271 244.0317,61.6271 C242.8367,61.6271 241.9287,60.8761 241.9287,60.0971 C241.9287,59.9151 241.9687,59.7471 242.0727,59.5911 C242.1237,60.2141 243.1747,60.7721 243.9917,60.7721 C244.5747,60.7721 245.2237,60.5771 245.2237,59.9931 C245.2237,58.9951 241.9037,58.8251 241.9037,56.7891 C241.9037,55.5181 242.8897,54.7141 244.3677,54.7141 C245.3027,54.7141 245.8857,55.0121 246.2097,55.2071 C246.3007,55.5051 246.3397,56.2061 245.8717,56.6861 L245.6387,56.6351 Z" id="Fill-92"></path>
                <path d="M255.5371,60.72 C256.6391,60.72 257.4561,59.254 257.4561,57.439 C257.4561,55.337 256.4181,53.624 255.2251,53.624 C254.1091,53.624 253.2791,55.076 253.2791,56.88 C253.2791,58.852 254.2661,60.72 255.5371,60.72 M255.6791,52.692 C257.7031,52.692 259.3901,54.157 259.3901,56.997 C259.3371,59.617 257.6381,61.627 254.9141,61.627 C253.1641,61.627 251.3601,60.15 251.3601,57.295 C251.3601,54.572 253.1881,52.692 255.6791,52.692" id="Fill-94"></path>
                <path d="M263.7363,54.9085 C263.9043,54.9085 264.3323,54.8695 264.4243,54.7015 C264.4493,54.7925 264.4633,54.9085 264.4633,55.0125 C264.4633,55.4015 264.2673,55.7915 263.3473,55.7915 C263.1393,55.7915 262.8543,55.7525 262.6333,55.7525 L262.6333,56.5175 C262.6333,57.8535 262.6593,60.5895 262.8543,61.4595 L261.0383,61.4595 C261.0513,61.1865 261.1033,58.3975 261.1033,57.2575 C261.1033,56.5045 261.0903,55.9725 260.9873,55.8295 C260.7003,55.4145 260.3643,55.3235 260.3643,55.3235 L260.4283,54.9345 C260.7003,54.9085 261.1033,54.7275 261.1553,54.1955 C261.3623,52.0805 262.6213,51.5235 263.6193,51.5235 C264.5663,51.5235 265.1753,52.0165 265.1753,52.5615 C265.1753,52.9765 264.8263,53.2485 264.4363,53.2485 C264.2673,53.2485 264.0993,53.1975 263.9433,53.0805 C263.9693,52.8335 263.8523,52.4705 263.2953,52.4705 C262.7383,52.4705 262.5443,52.9245 262.5443,53.5335 C262.5443,53.6245 262.5563,53.7035 262.5563,53.7935 L262.6213,54.6755 C262.6213,54.7405 262.6213,54.8315 262.6073,54.9085 L263.7363,54.9085 Z" id="Fill-96"></path>
                <path d="M267.9258,54.9085 C268.0958,54.9085 268.5228,54.8695 268.6128,54.7015 C268.6398,54.7925 268.6528,54.9085 268.6528,55.0125 C268.6528,55.4015 268.4578,55.7915 267.5368,55.7915 C267.3298,55.7915 267.0448,55.7525 266.8238,55.7525 L266.8238,56.5175 C266.8238,57.8535 266.8508,60.5895 267.0448,61.4595 L265.2288,61.4595 C265.2408,61.1865 265.2928,58.3975 265.2928,57.2575 C265.2928,56.5045 265.2808,55.9725 265.1768,55.8295 C264.8908,55.4145 264.5548,55.3235 264.5548,55.3235 L264.6188,54.9345 C264.8908,54.9085 265.2928,54.7275 265.3448,54.1955 C265.5528,52.0805 266.8108,51.5235 267.8098,51.5235 C268.7558,51.5235 269.3648,52.0165 269.3648,52.5615 C269.3648,52.9765 269.0168,53.2485 268.6258,53.2485 C268.4578,53.2485 268.2898,53.1975 268.1338,53.0805 C268.1598,52.8335 268.0428,52.4705 267.4848,52.4705 C266.9278,52.4705 266.7338,52.9245 266.7338,53.5335 C266.7338,53.6245 266.7448,53.7035 266.7448,53.7935 L266.8108,54.6755 C266.8108,54.7405 266.8108,54.8315 266.7978,54.9085 L267.9258,54.9085 Z" id="Fill-98"></path>
                <path d="M276.8174,54.7142 C277.9984,54.7142 278.9964,55.1692 278.9964,55.9462 C278.9964,56.4272 278.5944,56.7502 278.1794,56.7502 C277.9714,56.7502 277.7514,56.6592 277.5834,56.4652 C277.5704,56.0242 277.2854,55.6092 276.6754,55.6092 C275.7664,55.6092 275.1964,56.8292 275.1964,58.0342 C275.1964,59.2402 275.8324,60.4852 276.9614,60.4852 C277.5704,60.4852 278.4264,60.2912 279.0754,59.3192 C279.1274,59.4752 279.1524,59.6172 279.1524,59.7732 C279.1524,60.8362 277.9074,61.6272 276.4154,61.6272 C274.8594,61.6272 273.5884,60.6552 273.5884,58.4492 C273.5884,56.4012 274.9754,54.7142 276.8174,54.7142" id="Fill-100"></path>
                <path d="M281.4756,57.3724 C282.2396,57.3594 282.9656,57.3094 283.7696,57.2954 C283.7576,56.5044 283.4456,55.5704 282.6806,55.5704 C281.9546,55.5704 281.6566,56.4144 281.4756,57.3724 L281.4756,57.3724 Z M285.2106,57.8924 C284.9506,57.9954 284.6656,58.0214 284.3406,58.0214 L281.4616,57.9824 C281.4756,58.1254 281.4756,58.3194 281.4756,58.4634 C281.5126,59.8114 282.4476,60.4854 283.2506,60.4854 C283.8606,60.4854 284.7826,60.2654 285.4296,59.2934 C285.7936,60.7204 284.1846,61.6274 282.6946,61.6274 C281.2026,61.6274 279.8526,60.7204 279.8266,58.5144 C279.8266,56.4274 280.9816,54.7784 282.7586,54.7784 C285.2226,54.7784 285.3266,56.9064 285.3266,57.5424 L285.3266,57.8404 L285.2106,57.8924 Z" id="Fill-102"></path>
                <path d="M168.4521,34.8489 C173.6101,29.4509 175.4901,29.2699 175.4901,29.2699 C178.8491,28.4109 180.7681,31.7099 180.7681,31.7099 C175.0111,35.0089 168.4521,34.8489 168.4521,34.8489 M189.7861,30.2299 C189.7861,30.2299 191.2261,27.9309 193.1451,30.8099 C193.1451,30.8099 190.3061,31.1899 189.7861,30.2299 M204.0621,32.6899 C204.0621,32.6899 202.2831,33.1289 200.8631,30.4499 C200.8631,30.4499 203.9231,30.1699 204.0621,32.6899 M224.1781,26.5709 C224.1781,26.5709 224.9171,25.3309 226.0771,26.0709 L227.1961,27.1509 C227.1961,27.1509 224.7571,27.4509 224.1781,26.5709 M235.0341,31.5299 C234.9151,31.2899 235.9741,30.6899 235.9741,30.6899 C237.2941,30.3699 238.3531,32.0499 238.3531,32.0499 C236.1071,32.5699 235.1541,31.7699 235.0341,31.5299 M255.6091,27.1839 L254.5961,29.6369 L255.1021,31.2899 C255.1021,31.2899 253.0761,32.2769 251.3701,30.3839 C251.3701,30.3839 250.8101,29.5039 251.3701,28.5709 L251.3171,27.9309 L250.4901,28.8909 C250.4901,28.8909 249.7701,29.9839 249.5841,30.2499 C249.3971,30.5169 248.5441,31.9029 246.8651,32.3029 C246.8651,32.3029 243.5321,32.5429 244.6251,29.7439 C244.6251,29.7439 244.7051,29.3489 244.0391,29.7459 L240.5991,31.5299 C240.5991,31.5299 240.4391,31.7439 240.3871,31.1829 C240.3871,31.1829 238.7611,27.1839 236.0951,28.5169 C236.0951,28.5169 233.3481,30.4369 233.8281,33.3699 C233.8281,33.3699 234.4151,35.2619 237.9331,34.6219 C237.9331,34.6219 239.1861,34.3019 239.2941,34.1689 C239.4001,34.0359 239.5601,35.2089 239.5601,35.2089 C239.5601,35.2089 236.5201,38.9679 231.2161,41.1809 C231.2161,41.1809 226.8161,42.7269 225.5371,38.7819 C225.5371,38.7819 225.2441,36.3279 225.7771,35.9549 L228.2291,33.6619 C228.2291,33.6619 229.9631,31.5299 229.9631,28.4369 C229.9631,28.4369 229.7491,24.4379 226.5501,23.3459 C226.5501,23.3459 225.0301,23.1849 224.0171,24.4919 C224.0171,24.4919 220.8981,28.1709 224.0171,29.4769 C224.0171,29.4769 226.8441,29.6899 227.3771,29.8239 C227.9101,29.9569 229.2161,30.2499 228.5231,31.0769 C228.5231,31.0769 226.2571,33.6619 223.9371,35.2359 C223.9371,35.2359 220.1251,38.4879 217.1121,37.0759 L219.0581,34.9949 C219.0581,34.9949 220.1511,32.7029 220.1791,31.3699 C220.1791,31.3699 218.8981,27.4239 218.7391,26.9449 C218.5791,26.4649 218.4191,25.8509 218.9781,25.1849 L217.3261,22.3589 L216.2861,24.7579 L216.7131,25.6909 C216.7131,25.6909 217.2721,28.1439 217.8321,29.6899 C217.8321,29.6899 219.1391,32.9689 218.9521,33.2359 L215.3531,36.1159 C215.3531,36.1159 212.7941,34.9429 215.0331,28.5169 L214.9271,28.2779 C214.9271,28.2779 214.1801,29.6099 213.8061,31.3969 C213.8061,31.3969 212.7671,34.4099 213.6201,37.2079 C213.6201,37.2079 209.2221,40.3539 204.7691,40.3539 C204.7691,40.3539 199.0111,40.6479 198.4241,34.6759 C198.4241,34.6759 198.5041,31.8499 199.1431,31.5299 C199.1431,31.5299 200.2901,34.9949 202.7431,35.2089 C202.7431,35.2089 204.6091,35.2089 205.2231,32.1169 C205.2231,32.1169 206.3151,27.6639 201.7571,27.9839 L200.1571,28.4109 L199.2511,23.0789 C199.2511,23.0789 199.2641,23.0659 199.2661,23.0639 C199.2661,23.0529 199.2601,23.0419 199.2611,23.0309 C199.2761,22.8209 199.2551,22.6119 199.2381,22.4029 C199.2291,22.3029 199.2231,22.2029 199.2231,22.1019 C199.2111,22.0119 199.1951,21.9219 199.1921,21.8309 C199.1921,21.8209 199.1951,21.8109 199.1951,21.8009 C199.1581,21.2749 198.2941,9.1889 198.4241,7.9899 C198.4241,7.9899 198.4511,7.2159 198.6381,7.2699 C198.8241,7.3229 199.3041,8.4429 199.3041,8.4429 L199.6771,8.8429 L199.8901,8.6019 L199.9171,7.7489 L197.6781,1.4049 L196.3981,3.6439 L196.7451,4.4169 C196.7451,4.4169 197.2241,21.5329 197.5171,23.1319 L197.4891,23.1669 C197.4891,23.2049 197.4901,23.2429 197.4901,23.2799 C197.5361,23.6309 197.5581,23.9849 197.5891,24.3369 L197.5981,24.3319 L198.5041,29.0769 L195.4651,30.2499 C195.4651,30.2499 194.1581,26.3849 191.3861,26.7579 C191.3861,26.7579 187.4941,29.0239 188.5871,32.2229 C188.5871,32.2229 189.3331,34.3559 194.2381,32.9429 C194.2381,32.9429 194.4521,32.8899 194.5051,33.2359 C194.5581,33.5819 194.5051,33.9029 194.5051,33.9029 C194.5051,33.9029 192.5321,36.9949 186.1071,40.1409 C186.1071,40.1409 185.2541,40.8339 183.1751,40.6479 C183.1751,40.6479 179.7631,40.3279 179.3361,37.2349 C179.3361,37.2349 179.4421,34.4619 179.8431,34.0889 L180.5091,33.6099 L180.6421,33.2359 L182.1081,30.4899 L182.1351,29.7699 C182.1351,29.7699 181.7891,27.6639 178.1361,26.9179 C178.1361,26.9179 174.7771,26.5449 170.0851,32.0099 L170.4051,30.5699 C170.4051,30.5699 170.6441,28.2779 170.6441,28.1979 C170.6441,28.1179 170.6181,25.6909 170.6181,25.6909 L169.9521,15.9339 L169.2311,8.0959 L169.3911,7.4299 L170.4051,8.9229 L170.6441,7.9629 L168.5121,1.4049 L167.1521,3.6439 L167.4991,4.3639 L168.9921,23.2119 C168.9921,23.2119 169.7121,31.9299 169.2851,32.7029 L167.3651,34.7829 C167.3651,34.7829 164.2731,34.7029 164.0071,31.5299 C164.0071,31.5299 163.4461,31.8759 163.0731,32.4629 C163.0731,32.4629 160.2481,37.0479 156.3551,35.1819 C156.3551,35.1819 154.9151,34.7559 154.7021,29.9309 C154.7021,29.9309 154.2761,25.3449 153.2361,24.6249 C153.2361,24.6249 152.5701,25.2649 152.3031,26.5709 C152.3031,26.5709 151.8491,29.5309 149.1571,28.8369 L148.4641,26.7039 L147.4771,29.2899 C147.4771,29.2899 148.9441,34.2229 148.3841,35.1559 C148.3841,35.1559 137.9331,43.9799 130.9491,38.6479 C130.9491,38.6479 127.2691,35.1559 130.4151,29.2369 C130.4151,29.2369 131.1621,29.7699 131.9621,28.7569 C131.9621,28.7569 134.5211,26.1449 133.8811,24.4649 C133.8811,24.4649 133.6151,24.4649 133.5081,24.8909 C133.5081,24.8909 132.5211,27.9569 131.2421,26.5979 C131.2421,26.5979 129.7751,24.8649 131.2151,22.0659 L133.2411,17.3199 C133.2411,17.3199 133.4281,16.6809 133.2411,16.5469 L132.0951,18.3869 C132.0951,18.3869 128.5761,24.5449 129.4821,27.7709 C129.4821,27.7709 129.8291,28.6509 129.9621,28.7569 C129.9621,28.7569 125.4561,36.7019 129.9351,40.9949 C129.9351,40.9949 133.5881,44.6469 141.0531,41.6869 C141.0531,41.6869 146.0111,39.5009 148.2511,37.2879 C148.2511,37.2879 149.2371,36.0619 149.6901,33.3159 L149.8241,31.4499 C149.8241,31.4499 151.4501,31.3699 152.4901,27.5839 C152.4901,27.5839 153.3961,28.9709 153.3961,31.8759 C153.3961,31.8759 153.0491,36.1679 155.5291,37.7149 C155.5291,37.7149 158.3811,39.6879 161.3931,36.5689 L162.9131,34.6219 C162.9131,34.6219 163.1001,34.3019 163.2871,35.1559 C163.2871,35.1559 163.9791,36.5949 165.3121,36.9679 C165.3121,36.9679 164.7791,38.1419 164.8871,38.3009 L165.9261,37.2349 C165.9261,37.2349 170.5381,37.7149 175.7641,35.8749 C175.7641,35.8749 178.9091,34.8349 179.0151,34.4619 C179.0151,34.4619 178.0291,38.1149 178.4821,39.4209 C178.4821,39.4209 178.8031,42.8069 183.3351,43.3139 C183.3351,43.3139 185.2811,43.5269 189.3061,40.7539 C189.3061,40.7539 193.5461,37.7149 194.3981,36.2479 C194.3981,36.2479 195.3581,34.7029 195.5181,33.3159 L195.5181,32.4099 L198.4511,31.1029 C198.4511,31.1029 196.7981,34.1429 197.8111,38.5679 C197.8111,38.5679 199.0641,42.8869 204.3431,42.8329 C204.3431,42.8329 207.2221,43.4469 214.6331,38.7539 C214.6331,38.7539 218.3391,42.4599 224.5771,37.0479 C224.5771,37.0479 223.0841,43.6869 229.1361,44.0859 C229.1361,44.0859 231.4021,44.7799 237.8811,39.0479 C237.8811,39.0479 240.4391,37.3149 240.7061,33.6099 L243.3991,32.0899 C243.3991,32.0899 243.0791,34.4619 245.1581,34.7289 C245.1581,34.7289 247.5311,35.7149 249.7181,31.4499 L249.8901,31.4399 C249.8901,31.4399 249.8201,33.7989 252.9901,33.9789 C252.9901,33.9789 254.5501,33.7089 255.2091,32.4699 C255.2091,32.4699 257.0491,29.7369 255.6091,27.1839" id="Fill-104"></path>
                <path d="M311.5303,32.5013 C311.5303,32.5013 312.5853,30.9473 313.3233,32.0013 C313.3233,32.0013 314.1663,32.9503 314.1663,34.0053 C314.1663,34.0053 312.0053,33.3173 311.5303,32.5013 M314.4293,29.7343 C313.2703,29.2083 311.0553,31.6853 311.0553,31.6853 L310.7923,31.3693 C310.6343,31.3693 309.5013,32.7393 309.5013,32.7393 C306.6803,36.5883 303.4653,35.6913 303.4653,35.6913 C301.1193,35.4803 296.2433,29.1023 296.2433,29.1023 C294.6343,26.9933 282.0363,18.0843 282.0363,18.0843 C281.4563,17.6893 281.9833,17.3733 281.9833,17.3733 C282.6953,16.7143 301.9633,5.7493 301.9633,5.7493 C304.9943,4.0093 306.8913,3.5083 306.8913,3.5083 C308.8943,4.0623 305.4413,6.8033 305.4413,6.8033 C302.2263,9.8613 300.4333,13.9203 300.4333,13.9203 L300.5923,14.1843 C300.6183,13.4193 307.8413,4.5103 307.8413,4.5103 C309.3163,2.1643 308.7623,1.7163 308.7623,1.7163 C308.1823,0.4253 302.6213,3.5613 302.6213,3.5613 L281.5093,15.5813 C280.3753,16.6353 280.6123,19.7453 280.6123,19.7453 L285.3043,23.6203 C288.6513,25.7813 293.6863,31.4223 293.6863,31.4223 C295.7163,34.4793 295.0833,35.1903 295.0833,35.1903 C294.5033,36.1403 292.2623,36.5093 292.2623,36.5093 C289.2313,36.7993 288.9943,34.5053 288.9943,34.5053 C289.0203,33.5833 288.8883,33.5833 288.8883,33.5833 C288.6263,33.5833 287.3073,35.9023 287.3073,35.9023 C285.4363,38.3273 283.4323,37.0363 283.4323,37.0363 C282.4313,36.5623 282.9323,34.9273 282.9323,34.9273 C283.3533,34.0313 282.6163,34.3743 282.6163,34.3743 C274.9453,38.8553 268.5143,39.4613 268.5143,39.4613 C258.4983,40.1193 257.9983,34.4523 257.9983,34.4523 C257.3913,33.2403 258.8413,29.7083 258.8413,29.7083 L258.7613,29.4713 C256.5213,33.2673 256.8643,35.8003 256.8643,35.8003 C257.2073,40.0213 261.8983,41.4903 261.8983,41.4903 C267.3013,42.8083 272.8633,40.8053 272.8633,40.8053 C276.5273,39.7513 281.9303,36.6933 281.9303,36.6933 C281.7993,38.2743 282.2203,38.8553 282.2203,38.8553 C284.1713,41.0953 286.2533,39.0073 286.2533,39.0073 C287.0703,38.3423 287.7563,36.7723 287.7563,36.7723 C287.9403,36.1663 288.2303,36.2193 288.2303,36.2193 C288.4413,39.5933 291.8143,38.9603 291.8143,38.9603 C297.1913,37.9583 295.9793,32.1593 295.9793,32.1593 L299.6173,36.2193 C302.1473,38.8023 303.8343,38.3273 303.8343,38.3273 C307.3663,38.2743 309.8433,34.0583 309.8433,34.0583 C311.8993,36.4823 314.5883,36.6413 314.5883,36.6413 C315.7483,36.2723 316.0113,34.7423 316.0113,34.7423 C316.2223,29.9983 314.4293,29.7343 314.4293,29.7343" id="Fill-106"></path>
                <polygon id="Fill-108" points="154.0981 42.47 155.5291 40.689 153.3201 38.945 152.0651 40.563 149.7561 39.183 148.4521 41.14 150.4961 42.697 152.0901 41.14"></polygon>
                <polygon id="Fill-110" points="161.2891 26.95 158.9471 25.281 157.6521 27.349 159.9691 28.943"></polygon>
                <polygon id="Fill-112" points="217.8613 16.7356 215.5193 15.0666 214.2233 17.1336 216.5413 18.7286"></polygon>
                <polygon id="Fill-114" points="252.0391 18.3353 249.6961 16.6663 248.4011 18.7333 250.7191 20.3283"></polygon>
                <polygon id="Fill-116" points="269.8477 44.4349 267.5057 42.7649 266.2097 44.8329 268.5277 46.4279"></polygon>
                <polygon id="Fill-118" points="250.4922 22.597 248.1502 20.928 246.8542 22.995 249.1722 24.59"></polygon>
                <polygon id="Fill-120" points="254.1299 22.597 251.7879 20.928 250.4919 22.995 252.8099 24.59"></polygon>
                <polygon id="Fill-122" points="281.8447 29.1019 279.5017 27.4329 278.2067 29.4999 280.5237 31.0949"></polygon>
                <polygon id="Fill-124" points="285.4824 29.1019 283.1394 27.4329 281.8444 29.4999 284.1614 31.0949"></polygon>
                <polygon id="Fill-126" points="143.4805 30.7225 141.1385 29.0535 139.8425 31.1205 142.1605 32.7155"></polygon>
                <path d="M157.3018,12.3909 C157.3018,12.3909 157.2088,12.9199 156.9278,12.9199 C156.9278,12.9199 155.6538,12.1109 155.5288,11.8309 C155.5288,11.8309 155.4978,9.6849 156.6168,9.9649 C156.6168,9.9649 158.7318,10.5249 159.3228,14.7549 C159.3228,14.7549 159.9458,9.4059 161.6558,9.1879 C161.6558,9.1879 162.4948,9.0629 163.2408,10.3079 L162.7758,11.7999 C162.7758,11.7999 161.7488,10.5869 161.2818,10.6489 C161.2818,10.6489 160.6598,11.0809 160.5048,11.9699 C160.5048,11.9699 159.8828,16.0609 159.1678,16.5269 C159.1678,16.5269 158.8118,17.0009 158.5058,14.9979 C158.4898,14.8949 158.4668,14.7929 158.4348,14.6939 C158.2738,14.1969 157.7438,12.6509 157.3018,12.3909" id="Fill-128"></path>
                <path d="M222.0937,5.0643 C222.0937,5.0643 222.0007,5.5933 221.7207,5.5933 C221.7207,5.5933 220.4457,4.7843 220.3217,4.5043 C220.3217,4.5043 220.2897,2.3583 221.4087,2.6383 C221.4087,2.6383 223.5247,3.1983 224.1147,7.4283 C224.1147,7.4283 224.7377,2.0793 226.4477,1.8613 C226.4477,1.8613 227.2867,1.7363 228.0337,2.9813 L227.5677,4.4733 C227.5677,4.4733 226.5407,3.2603 226.0737,3.3233 C226.0737,3.3233 225.4517,3.7543 225.2967,4.6433 C225.2967,4.6433 224.6747,8.7343 223.9597,9.2003 C223.9597,9.2003 223.6047,9.6753 223.2977,7.6713 C223.2817,7.5683 223.2587,7.4663 223.2267,7.3673 C223.0657,6.8703 222.5357,5.3243 222.0937,5.0643" id="Fill-130"></path>
                <path d="M258.8105,17.16 C258.8105,17.16 258.7405,17.554 258.5315,17.554 C258.5315,17.554 257.5805,16.951 257.4875,16.742 C257.4875,16.742 257.4645,15.141 258.2995,15.35 C258.2995,15.35 259.8765,15.768 260.3185,18.923 C260.3185,18.923 260.7825,14.932 262.0575,14.77 C262.0575,14.77 262.6845,14.678 263.2415,15.605 L262.8935,16.719 C262.8935,16.719 262.1275,15.814 261.7795,15.861 C261.7795,15.861 261.3155,16.183 261.1995,16.845 C261.1995,16.845 260.7355,19.897 260.2025,20.245 C260.2025,20.245 259.9365,20.599 259.7075,19.105 C259.6965,19.028 259.6795,18.952 259.6555,18.878 C259.5355,18.507 259.1405,17.354 258.8105,17.16" id="Fill-132"></path>
                <path d="M245.7432,4.7874 C245.9882,4.3294 246.6992,4.1774 246.6992,4.1774 C247.4612,3.9094 247.7382,4.3764 247.7382,4.3764 C248.0682,4.7124 247.9892,5.4594 247.9892,5.4594 C248.0592,6.1904 247.6912,6.9774 247.6912,6.9774 C247.2612,6.7544 246.1982,5.8324 246.1982,5.8324 C245.4052,4.9844 245.7432,4.7874 245.7432,4.7874 M246.7532,8.1994 C246.6072,8.5884 245.1432,10.0244 245.1432,10.0244 C243.8672,11.3734 241.4952,13.4424 241.4952,13.4424 C239.1752,15.3524 237.8282,16.3524 237.8282,16.3524 C234.7632,18.5644 235.0812,18.6004 235.0812,18.6004 C235.1842,18.7414 235.5562,18.5384 235.5562,18.5384 C236.4062,18.0704 237.3302,17.4134 237.3302,17.4134 C239.1122,16.2434 240.0592,15.5764 240.0592,15.5764 C241.7652,14.3714 242.5102,13.7114 242.5102,13.7114 C244.1072,12.2804 244.5782,11.7494 244.5782,11.7494 C245.7592,10.5994 246.4062,9.7014 246.4062,9.7014 C247.3882,8.2284 247.3202,8.5724 247.3202,8.5724 C247.4822,8.6014 247.8952,9.1974 247.8952,9.1974 C248.2532,9.5554 248.5102,10.1254 248.5102,10.1254 C248.6132,10.1004 248.9152,8.8694 248.9152,8.8694 C248.9352,8.5344 248.6662,8.0924 248.6662,8.0924 C248.5132,7.7704 248.0082,7.2474 248.0082,7.2474 C247.9602,7.1474 248.2642,6.6664 248.2642,6.6664 C248.6142,6.0294 248.7862,5.2164 248.7862,5.2164 C248.9492,4.0644 248.6442,3.2914 248.6442,3.2914 C248.3352,2.3114 246.9882,2.8004 246.9882,2.8004 C245.5112,3.6564 244.9562,5.5584 244.9562,5.5584 C244.8362,6.2044 245.1252,6.6474 245.1252,6.6474 C245.5502,7.4434 246.7532,8.1994 246.7532,8.1994" id="Fill-134"></path>
                <path d="M241.2109,21.9656 L240.6239,23.2906 L234.5349,26.7936 L235.2789,25.0236 L236.9029,24.2866 C236.9029,24.2866 234.3729,23.6716 237.4209,20.6826 C237.4209,20.6826 239.6749,18.7686 239.9889,20.2956 C239.9889,20.2956 240.1929,21.1776 239.3749,21.9046 C239.3749,21.9046 239.1829,20.9086 238.1759,21.2156 L236.8229,22.1216 C236.8229,22.1216 236.5289,22.7836 238.5769,23.0366 C238.5769,23.0366 240.2059,22.8476 241.2109,21.9656" id="Fill-136"></path>
                <path d="M184.9609,7.7762 L186.0269,9.1842 C186.0269,9.1842 186.3479,9.2912 186.3479,8.4802 L184.0009,1.4042 L182.6679,3.7772 L182.9879,4.5772 C182.9879,4.5772 183.2009,11.4792 183.5219,15.0662 L184.8549,29.3602 C184.8549,29.3602 185.3339,36.3562 185.3339,36.6222 C185.3339,36.8892 185.2279,38.8202 185.1749,39.1872 C185.1209,39.5542 185.9209,39.2872 186.3479,36.8892 C186.3479,36.8892 186.6669,35.3362 186.3479,29.1282 C186.0269,22.9192 184.9609,7.7762 184.9609,7.7762" id="Fill-138"></path>
                <path d="M209.0576,7.4681 L210.0726,8.8081 C210.0726,8.8081 210.3766,8.9101 210.3766,8.1381 L208.1436,1.4051 L206.8746,3.6621 L207.1796,4.4241 C207.1796,4.4241 207.3826,10.9921 207.6876,14.4061 L208.9556,28.0101 C208.9556,28.0101 209.4116,34.6661 209.4116,34.9201 C209.4116,35.1741 209.3106,37.0121 209.2596,37.3621 C209.2096,37.7111 209.9706,37.4571 210.3766,35.1741 C210.3766,35.1741 210.6806,33.6971 210.3766,27.7881 C210.0726,21.8791 209.0576,7.4681 209.0576,7.4681" id="Fill-140"></path>
                <path d="M311.2275,19.8348 C311.2275,19.8348 308.6175,24.2118 308.9865,25.7408 C308.9865,25.7408 309.0565,27.5608 310.0895,27.1648 C310.0895,27.1648 311.5965,25.9518 311.4645,24.1858 C311.4645,24.1858 311.0695,24.9498 310.7795,25.3978 C310.7795,25.3978 309.6715,26.6378 309.5925,24.1588 L311.2805,20.3888 C311.2805,20.3888 311.5435,20.0198 311.2275,19.8348" id="Fill-142"></path>
                <path d="M320.1934,10.2366 L319.5604,11.6336 L298.5184,20.7866 L299.0464,19.2016 C299.0464,19.2016 319.7714,10.3416 320.1934,10.2366" id="Fill-144"></path>
                <path d="M283.3662,6.3279 L287.8232,3.7179 L282.8912,3.8489 C282.8912,3.8489 283.9722,1.7399 284.3942,1.6609 C284.3942,1.6609 288.7992,1.1859 289.5372,1.5289 C289.5372,1.5289 290.3792,1.5289 289.7472,2.5309 C289.7472,2.5309 288.2712,4.7459 287.2172,5.5369 C287.2172,5.5369 286.3452,6.2489 283.3662,6.3279" id="Fill-146"></path>
                <polygon id="Fill-148" points="168.7783 44.5423 175.5293 41.6943 175.6613 40.8513 168.9103 43.6723"></polygon>
                <polygon id="Fill-150" points="158.126 44.5423 163.215 42.0633 163.399 41.2723 158.126 43.8043"></polygon>
                <polygon id="Fill-152" points="187.0771 17.4837 187.2361 16.6927 195.2521 12.0517 195.2521 12.8467"></polygon>
            </g>
        </g>
    </g>
</svg>